{
.appVersion = "939";
copyright = "Copyright 2016 Google Inc. All Rights Reserved.";
customParameters = (
{
name = description;
value = "Designed by Monotype design team.";
},
{
name = license;
value = "This Font Software is licensed under the SIL Open Font License, Version 1.1. This Font Software is distributed on an \"AS IS\" BASIS, WITHOUT WARRANTIES OR CONDITIONS OF ANY KIND, either express or implied. See the SIL Open Font License for the specific language, permissions and limitations governing your use of this Font Software.";
},
{
name = licenseURL;
value = "http://scripts.sil.org/OFL";
},
{
name = vendorID;
value = GOOG;
},
{
name = trademark;
value = "Noto is a trademark of Google Inc.";
},
{
name = fsType;
value = (
);
},
{
name = panose;
value = (
2,
11,
5,
2,
4,
5,
4,
2,
2,
4
);
},
{
name = unicodeRanges;
value = (
94
);
},
{
name = codePageRanges;
value = (
1252
);
},
{
name = glyphOrder;
value = (
.notdef,
null,
uni000D,
space,
uni1950,
uni1951,
uni1952,
uni1953,
uni1954,
uni1955,
uni1956,
uni1957,
uni1958,
uni1959,
uni195A,
uni195B,
uni195C,
uni195D,
uni195E,
uni195F,
uni1960,
uni1961,
uni1962,
uni1963,
uni1964,
uni1965,
uni1966,
uni1967,
uni1968,
uni1969,
uni196A,
uni196B,
uni196C,
uni196D,
uni1970,
uni1971,
uni1972,
uni1973,
uni1974,
uni3001,
uni3002,
uni3008,
uni3009,
uni300A,
uni300B,
uni1040,
uni1041,
uni1042,
uni1043,
uni1044,
uni1045,
uni1046,
uni1047,
uni1048,
uni1049,
uni0300,
uni0301,
uni0307,
uni0308,
uni030C,
uni300.space,
uni0301.space,
uni0307.space,
uni0308.space,
uni030C.space,
uni196C.wide
);
}
);
date = "2016-11-10 17:38:45 +0000";
designer = "Monotype Design Team";
designerURL = "http://www.monotype.com/studio";
disablesNiceNames = 1;
familyName = "Noto Sans Tai Le";
features = (
{

glyphs = (
{
glyphname = .notdef;
lastChange = "2016-11-10 17:38:31 +0000";
layers = (
{
layerId = "B764C7F0-85F8-4672-8E50-094117B7ADAE";
paths = (
{
closed = 1;
nodes = (
"1034 0 LINE",
"1034 1462 LINE",
"193 1462 LINE",
"193 0 LINE"
);
},
{
closed = 1;
nodes = (
"297 1358 LINE",
"930 1358 LINE",
"930 104 LINE",
"297 104 LINE"
);
}
);
width = 1229;
}
);
note = .notdef;
},
{
glyphname = uni1950;
lastChange = "2016-11-10 17:38:31 +0000";
layers = (
{
layerId = "B764C7F0-85F8-4672-8E50-094117B7ADAE";
paths = (
{
closed = 1;
nodes = (
"937 20 LINE",
"953 191 OFFCURVE",
"961 356 OFFCURVE",
"961 516 CURVE SMOOTH",
"961 713 OFFCURVE",
"941 862 OFFCURVE",
"901 965 CURVE SMOOTH",
"861 1067 OFFCURVE",
"802 1118 OFFCURVE",
"725 1118 CURVE SMOOTH",
"658 1118 OFFCURVE",
"588 1082 OFFCURVE",
"514 1024 CURVE SMOOTH",
"477 995 OFFCURVE",
"422 944 OFFCURVE",
"350 871 CURVE SMOOTH",
"282 802 OFFCURVE",
"233 758 OFFCURVE",
"202 739 CURVE",
"194 830 OFFCURVE",
"172 917 OFFCURVE",
"136 1000 CURVE",
"-20 925 LINE",
"9 846 OFFCURVE",
"35 732 OFFCURVE",
"59 583 CURVE",
"201 588 LINE",
"254 611 OFFCURVE",
"337 686 OFFCURVE",
"450 813 CURVE SMOOTH",
"505 875 OFFCURVE",
"549 920 OFFCURVE",
"584 947 CURVE SMOOTH",
"619 974 OFFCURVE",
"647 988 OFFCURVE",
"670 988 CURVE SMOOTH",
"691 988 OFFCURVE",
"711 967 OFFCURVE",
"729 926 CURVE SMOOTH",
"764 843 OFFCURVE",
"785 686 OFFCURVE",
"785 482 CURVE SMOOTH",
"785 328 OFFCURVE",
"776 161 OFFCURVE",
"757 -20 CURVE"
);
}
);
width = 1051;
}
);
note = uni1950;
unicode = 1950;
},
{
glyphname = uni1951;
lastChange = "2016-11-10 17:38:31 +0000";
layers = (
{
layerId = "B764C7F0-85F8-4672-8E50-094117B7ADAE";
paths = (
{
closed = 1;
nodes = (
"867 -20 OFFCURVE",
"986 20 OFFCURVE",
"1094 101 CURVE",
"1091 -20 LINE",
"1265 40 LINE",
"1268 127 OFFCURVE",
"1270 226 OFFCURVE",
"1270 338 CURVE SMOOTH",
"1270 609 OFFCURVE",
"1232 804 OFFCURVE",
"1159 930 CURVE SMOOTH",
"1086 1056 OFFCURVE",
"976 1118 OFFCURVE",
"789 1118 CURVE SMOOTH",
"656 1118 OFFCURVE",
"509 1034 OFFCURVE",
"409 897 CURVE",
"378 1008 OFFCURVE",
"310 1064 OFFCURVE",
"206 1064 CURVE SMOOTH",
"132 1064 OFFCURVE",
"57 1019 OFFCURVE",
"-20 929 CURVE",
"10 848 LINE",
"43 905 OFFCURVE",
"91 934 OFFCURVE",
"154 934 CURVE SMOOTH",
"185 934 OFFCURVE",
"209 919 OFFCURVE",
"225 888 CURVE SMOOTH",
"240 857 OFFCURVE",
"248 802 OFFCURVE",
"248 723 CURVE SMOOTH",
"249 681 LINE",
"423 694 LINE",
"475 874 OFFCURVE",
"609 988 OFFCURVE",
"762 988 CURVE SMOOTH",
"831 988 OFFCURVE",
"883 978 OFFCURVE",
"919 957 CURVE SMOOTH",
"991 916 OFFCURVE",
"1040 830 OFFCURVE",
"1068 673 CURVE",
"978 676 LINE SMOOTH",
"856 676 OFFCURVE",
"751 660 OFFCURVE",
"663 629 CURVE SMOOTH",
"486 565 OFFCURVE",
"390 448 OFFCURVE",
"390 305 CURVE SMOOTH",
"390 98 OFFCURVE",
"520 -20 OFFCURVE",
"736 -20 CURVE SMOOTH"
);
},
{
closed = 1;
nodes = (
"654 110 OFFCURVE",
"575 184 OFFCURVE",
"575 303 CURVE SMOOTH",
"575 464 OFFCURVE",
"724 561 OFFCURVE",
"975 561 CURVE",
"1083 556 LINE",
"1090 477 OFFCURVE",
"1094 392 OFFCURVE",
"1094 303 CURVE SMOOTH",
"1094 224 LINE",
"1023 156 OFFCURVE",
"900 110 OFFCURVE",
"777 110 CURVE SMOOTH"
);
}
);
width = 1360;
}
);
note = uni1951;
unicode = 1951;
},
{
glyphname = uni1952;
lastChange = "2016-11-10 17:38:31 +0000";
layers = (
{
layerId = "B764C7F0-85F8-4672-8E50-094117B7ADAE";
paths = (
{
closed = 1;
nodes = (
"292 20 LINE",
"299 99 OFFCURVE",
"307 378 OFFCURVE",
"307 571 CURVE",
"304 758 LINE",
"377 901 OFFCURVE",
"506 988 OFFCURVE",
"657 988 CURVE SMOOTH",
"748 988 OFFCURVE",
"795 950 OFFCURVE",
"816 857 CURVE SMOOTH",
"827 810 OFFCURVE",
"832 731 OFFCURVE",
"832 618 CURVE SMOOTH",
"832 463 OFFCURVE",
"810 191 OFFCURVE",
"781 -20 CURVE",
"961 20 LINE",
"985 143 OFFCURVE",
"1008 445 OFFCURVE",
"1008 606 CURVE SMOOTH",
"1008 751 OFFCURVE",
"998 857 OFFCURVE",
"979 923 CURVE SMOOTH",
"939 1054 OFFCURVE",
"857 1118 OFFCURVE",
"705 1118 CURVE SMOOTH",
"573 1118 OFFCURVE",
"397 1028 OFFCURVE",
"296 907 CURVE",
"289 1001 OFFCURVE",
"280 1071 OFFCURVE",
"269 1118 CURVE",
"100 1082 LINE",
"120 986 OFFCURVE",
"131 753 OFFCURVE",
"131 566 CURVE SMOOTH",
"131 323 OFFCURVE",
"127 127 OFFCURVE",
"118 -20 CURVE"
);
}
);
width = 1098;
}
);
note = uni1952;
unicode = 1952;
},
{
glyphname = uni1953;
lastChange = "2016-11-10 17:38:31 +0000";
layers = (
{
layerId = "B764C7F0-85F8-4672-8E50-094117B7ADAE";
paths = (
{
closed = 1;
nodes = (
"944 -20 OFFCURVE",
"1109 64 OFFCURVE",
"1224 180 CURVE",
"1221 95 OFFCURVE",
"1215 29 OFFCURVE",
"1205 -20 CURVE",
"1379 20 LINE",
"1392 167 OFFCURVE",
"1399 358 OFFCURVE",
"1399 593 CURVE SMOOTH",
"1399 928 OFFCURVE",
"1239 1118 OFFCURVE",
"952 1118 CURVE SMOOTH",
"840 1118 OFFCURVE",
"710 1046 OFFCURVE",
"593 917 CURVE",
"570 1057 OFFCURVE",
"502 1118 OFFCURVE",
"395 1118 CURVE SMOOTH",
"323 1118 OFFCURVE",
"248 1072 OFFCURVE",
"169 979 CURVE",
"165 1043 OFFCURVE",
"155 1104 OFFCURVE",
"138 1162 CURVE",
"-20 1107 LINE",
"0 1013 OFFCURVE",
"12 900 OFFCURVE",
"15 768 CURVE",
"154 774 LINE",
"203 917 OFFCURVE",
"261 988 OFFCURVE",
"326 988 CURVE SMOOTH",
"391 988 OFFCURVE",
"424 908 OFFCURVE",
"424 747 CURVE SMOOTH",
"424 551 LINE SMOOTH",
"424 164 OFFCURVE",
"558 -20 OFFCURVE",
"833 -20 CURVE SMOOTH"
);
},
{
closed = 1;
nodes = (
"701 110 OFFCURVE",
"600 264 OFFCURVE",
"600 551 CURVE SMOOTH",
"600 827 OFFCURVE",
"718 988 OFFCURVE",
"923 988 CURVE SMOOTH",
"1124 988 OFFCURVE",
"1223 855 OFFCURVE",
"1223 563 CURVE SMOOTH",
"1223 268 OFFCURVE",
"1104 110 OFFCURVE",
"876 110 CURVE SMOOTH"
);
}
);
width = 1489;
}
);
note = uni1953;
unicode = 1953;
},
{
glyphname = uni1954;
lastChange = "2016-11-10 17:38:31 +0000";
layers = (
{
layerId = "B764C7F0-85F8-4672-8E50-094117B7ADAE";
paths = (
{
closed = 1;
nodes = (
"824 -20 OFFCURVE",
"968 39 OFFCURVE",
"1064 107 CURVE",
"1056 -20 LINE",
"1234 20 LINE",
"1250 208 OFFCURVE",
"1258 475 OFFCURVE",
"1258 606 CURVE SMOOTH",
"1258 818 OFFCURVE",
"1240 1015 OFFCURVE",
"1219 1118 CURVE",
"1055 1098 LINE",
"1073 972 OFFCURVE",
"1082 802 OFFCURVE",
"1082 588 CURVE SMOOTH",
"1082 485 OFFCURVE",
"1079 367 OFFCURVE",
"1072 234 CURVE",
"989 157 OFFCURVE",
"879 110 OFFCURVE",
"772 110 CURVE SMOOTH",
"675 110 OFFCURVE",
"634 148 OFFCURVE",
"615 250 CURVE SMOOTH",
"605 301 OFFCURVE",
"600 395 OFFCURVE",
"600 532 CURVE SMOOTH",
"600 626 LINE SMOOTH",
"600 752 OFFCURVE",
"593 849 OFFCURVE",
"578 917 CURVE SMOOTH",
"549 1052 OFFCURVE",
"486 1118 OFFCURVE",
"395 1118 CURVE SMOOTH",
"323 1118 OFFCURVE",
"248 1072 OFFCURVE",
"169 979 CURVE",
"165 1043 OFFCURVE",
"155 1104 OFFCURVE",
"138 1162 CURVE",
"-20 1107 LINE",
"0 1013 OFFCURVE",
"12 900 OFFCURVE",
"15 768 CURVE",
"154 774 LINE",
"203 917 OFFCURVE",
"261 988 OFFCURVE",
"326 988 CURVE SMOOTH",
"364 988 OFFCURVE",
"390 967 OFFCURVE",
"404 925 CURVE SMOOTH",
"417 883 OFFCURVE",
"424 796 OFFCURVE",
"424 665 CURVE SMOOTH",
"424 519 LINE SMOOTH",
"424 360 OFFCURVE",
"433 246 OFFCURVE",
"452 178 CURVE SMOOTH",
"489 42 OFFCURVE",
"569 -20 OFFCURVE",
"724 -20 CURVE SMOOTH"
);
}
);
width = 1348;
}
);
note = uni1954;
unicode = 1954;
},
{
glyphname = uni1955;
lastChange = "2016-11-10 17:38:31 +0000";
layers = (
{
layerId = "B764C7F0-85F8-4672-8E50-094117B7ADAE";
paths = (
{
closed = 1;
nodes = (
"379 -20 OFFCURVE",
"477 72 OFFCURVE",
"549 236 CURVE",
"568 191 OFFCURVE",
"595 148 OFFCURVE",
"628 109 CURVE SMOOTH",
"694 30 OFFCURVE",
"777 -20 OFFCURVE",
"864 -20 CURVE SMOOTH",
"963 -20 OFFCURVE",
"1037 29 OFFCURVE",
"1084 127 CURVE SMOOTH",
"1131 225 OFFCURVE",
"1155 377 OFFCURVE",
"1155 582 CURVE SMOOTH",
"1155 729 OFFCURVE",
"1143 955 OFFCURVE",
"1124 1118 CURVE",
"952 1098 LINE",
"970 924 OFFCURVE",
"979 763 OFFCURVE",
"979 616 CURVE SMOOTH",
"979 452 OFFCURVE",
"970 327 OFFCURVE",
"951 240 CURVE SMOOTH",
"932 153 OFFCURVE",
"907 110 OFFCURVE",
"876 110 CURVE SMOOTH",
"837 110 OFFCURVE",
"798 134 OFFCURVE",
"758 183 CURVE SMOOTH",
"718 231 OFFCURVE",
"674 311 OFFCURVE",
"627 422 CURVE",
"511 365 LINE",
"467 228 OFFCURVE",
"385 108 OFFCURVE",
"340 108 CURVE SMOOTH",
"324 108 OFFCURVE",
"313 118 OFFCURVE",
"308 137 CURVE SMOOTH",
"303 156 OFFCURVE",
"299 191 OFFCURVE",
"297 241 CURVE SMOOTH",
"294 291 OFFCURVE",
"293 370 OFFCURVE",
"293 478 CURVE SMOOTH",
"293 594 LINE SMOOTH",
"293 713 OFFCURVE",
"277 971 OFFCURVE",
"261 1076 CURVE",
"90 1042 LINE",
"108 898 OFFCURVE",
"117 754 OFFCURVE",
"117 611 CURVE SMOOTH",
"117 517 LINE SMOOTH",
"117 345 OFFCURVE",
"122 227 OFFCURVE",
"132 163 CURVE SMOOTH",
"151 35 OFFCURVE",
"193 -20 OFFCURVE",
"280 -20 CURVE SMOOTH"
);
}
);
width = 1245;
}
);
note = uni1955;
unicode = 1955;
},
{
glyphname = uni1956;
lastChange = "2016-11-10 17:38:31 +0000";
layers = (
{
layerId = "B764C7F0-85F8-4672-8E50-094117B7ADAE";
paths = (
{
closed = 1;
nodes = (
"634 -20 OFFCURVE",
"799 61 OFFCURVE",
"916 181 CURVE",
"908 -20 LINE",
"1082 20 LINE",
"1088 158 OFFCURVE",
"1091 348 OFFCURVE",
"1091 589 CURVE SMOOTH",
"1091 671 OFFCURVE",
"1081 747 OFFCURVE",
"1060 817 CURVE",
"1156 926 OFFCURVE",
"1283 988 OFFCURVE",
"1406 988 CURVE SMOOTH",
"1497 988 OFFCURVE",
"1544 950 OFFCURVE",
"1565 857 CURVE SMOOTH",
"1576 810 OFFCURVE",
"1581 731 OFFCURVE",
"1581 618 CURVE SMOOTH",
"1581 463 OFFCURVE",
"1559 191 OFFCURVE",
"1530 -20 CURVE",
"1710 20 LINE",
"1734 179 OFFCURVE",
"1757 435 OFFCURVE",
"1757 579 CURVE SMOOTH",
"1757 734 OFFCURVE",
"1748 846 OFFCURVE",
"1729 916 CURVE SMOOTH",
"1692 1055 OFFCURVE",
"1610 1118 OFFCURVE",
"1454 1118 CURVE SMOOTH",
"1315 1118 OFFCURVE",
"1145 1044 OFFCURVE",
"1014 925 CURVE",
"939 1054 OFFCURVE",
"816 1118 OFFCURVE",
"644 1118 CURVE SMOOTH",
"539 1118 OFFCURVE",
"412 1054 OFFCURVE",
"288 921 CURVE",
"283 988 OFFCURVE",
"274 1051 OFFCURVE",
"261 1110 CURVE",
"90 1036 LINE",
"107 935 OFFCURVE",
"116 838 OFFCURVE",
"116 747 CURVE SMOOTH",
"116 551 LINE SMOOTH",
"116 164 OFFCURVE",
"250 -20 OFFCURVE",
"525 -20 CURVE SMOOTH"
);
},
{
closed = 1;
nodes = (
"393 110 OFFCURVE",
"292 264 OFFCURVE",
"292 551 CURVE SMOOTH",
"292 827 OFFCURVE",
"410 988 OFFCURVE",
"615 988 CURVE SMOOTH",
"816 988 OFFCURVE",
"915 855 OFFCURVE",
"915 563 CURVE SMOOTH",
"915 268 OFFCURVE",
"796 110 OFFCURVE",
"568 110 CURVE SMOOTH"
);
}
);
width = 1847;
}
);
note = uni1956;
unicode = 1956;
},
{
glyphname = uni1957;
lastChange = "2016-11-10 17:38:31 +0000";
layers = (
{
layerId = "B764C7F0-85F8-4672-8E50-094117B7ADAE";
paths = (
{
closed = 1;
nodes = (
"650 -20 OFFCURVE",
"839 82 OFFCURVE",
"960 230 CURVE",
"1019 66 OFFCURVE",
"1133 -20 OFFCURVE",
"1324 -20 CURVE SMOOTH",
"1433 -20 OFFCURVE",
"1598 61 OFFCURVE",
"1715 181 CURVE",
"1707 -20 LINE",
"1881 20 LINE",
"1887 152 OFFCURVE",
"1890 342 OFFCURVE",
"1890 589 CURVE SMOOTH",
"1890 929 OFFCURVE",
"1731 1118 OFFCURVE",
"1443 1118 CURVE SMOOTH",
"1314 1118 OFFCURVE",
"1162 1022 OFFCURVE",
"1043 867 CURVE",
"974 1034 OFFCURVE",
"841 1118 OFFCURVE",
"644 1118 CURVE SMOOTH",
"539 1118 OFFCURVE",
"412 1054 OFFCURVE",
"288 921 CURVE",
"283 988 OFFCURVE",
"274 1051 OFFCURVE",
"261 1110 CURVE",
"90 1036 LINE",
"107 935 OFFCURVE",
"116 838 OFFCURVE",
"116 747 CURVE SMOOTH",
"116 551 LINE SMOOTH",
"116 164 OFFCURVE",
"250 -20 OFFCURVE",
"525 -20 CURVE SMOOTH"
);
},
{
closed = 1;
nodes = (
"393 110 OFFCURVE",
"292 264 OFFCURVE",
"292 551 CURVE SMOOTH",
"292 827 OFFCURVE",
"410 988 OFFCURVE",
"615 988 CURVE SMOOTH",
"816 988 OFFCURVE",
"915 855 OFFCURVE",
"915 563 CURVE SMOOTH",
"915 268 OFFCURVE",
"796 110 OFFCURVE",
"568 110 CURVE SMOOTH"
);
},
{
closed = 1;
nodes = (
"1192 110 OFFCURVE",
"1091 264 OFFCURVE",
"1091 551 CURVE SMOOTH",
"1091 827 OFFCURVE",
"1209 988 OFFCURVE",
"1414 988 CURVE SMOOTH",
"1615 988 OFFCURVE",
"1714 855 OFFCURVE",
"1714 563 CURVE SMOOTH",
"1714 268 OFFCURVE",
"1595 110 OFFCURVE",
"1367 110 CURVE SMOOTH"
);
}
);
width = 1980;
}
);
note = uni1957;
unicode = 1957;
},
{
glyphname = uni1958;
lastChange = "2016-11-10 17:38:31 +0000";
layers = (
{
layerId = "B764C7F0-85F8-4672-8E50-094117B7ADAE";
paths = (
{
closed = 1;
nodes = (
"300 -20 OFFCURVE",
"433 43 OFFCURVE",
"520 116 CURVE",
"549 76 OFFCURVE",
"589 56 OFFCURVE",
"641 56 CURVE SMOOTH",
"710 56 OFFCURVE",
"792 86 OFFCURVE",
"886 145 CURVE",
"871 -20 LINE",
"1051 20 LINE",
"1066 148 OFFCURVE",
"1075 418 OFFCURVE",
"1075 529 CURVE SMOOTH",
"1075 741 OFFCURVE",
"1040 983 OFFCURVE",
"1000 1118 CURVE",
"833 1082 LINE",
"866 994 OFFCURVE",
"899 677 OFFCURVE",
"899 482 CURVE SMOOTH",
"899 404 OFFCURVE",
"897 326 OFFCURVE",
"892 249 CURVE",
"831 204 OFFCURVE",
"760 184 OFFCURVE",
"711 184 CURVE SMOOTH",
"679 184 OFFCURVE",
"657 201 OFFCURVE",
"645 234 CURVE SMOOTH",
"633 267 OFFCURVE",
"626 320 OFFCURVE",
"625 393 CURVE",
"459 364 LINE",
"462 294 OFFCURVE",
"470 236 OFFCURVE",
"485 189 CURVE",
"418 132 OFFCURVE",
"338 108 OFFCURVE",
"282 108 CURVE SMOOTH",
"250 108 OFFCURVE",
"228 125 OFFCURVE",
"216 158 CURVE SMOOTH",
"204 191 OFFCURVE",
"197 244 OFFCURVE",
"196 317 CURVE",
"30 288 LINE",
"39 80 OFFCURVE",
"95 -20 OFFCURVE",
"212 -20 CURVE SMOOTH"
);
}
);
width = 1165;
}
);
note = uni1958;
unicode = 1958;
},
{
glyphname = uni1959;
lastChange = "2016-11-10 17:38:31 +0000";
layers = (
{
layerId = "B764C7F0-85F8-4672-8E50-094117B7ADAE";
paths = (
{
closed = 1;
nodes = (
"523 -20 OFFCURVE",
"662 29 OFFCURVE",
"782 109 CURVE",
"773 -20 LINE",
"951 20 LINE",
"967 212 OFFCURVE",
"975 391 OFFCURVE",
"975 556 CURVE SMOOTH",
"975 815 OFFCURVE",
"962 1003 OFFCURVE",
"936 1118 CURVE",
"772 1098 LINE",
"790 972 OFFCURVE",
"799 785 OFFCURVE",
"799 538 CURVE SMOOTH",
"799 448 OFFCURVE",
"796 348 OFFCURVE",
"790 238 CURVE",
"695 154 OFFCURVE",
"584 110 OFFCURVE",
"479 110 CURVE SMOOTH",
"378 110 OFFCURVE",
"333 152 OFFCURVE",
"313 260 CURVE SMOOTH",
"302 314 OFFCURVE",
"297 405 OFFCURVE",
"297 532 CURVE SMOOTH",
"297 571 LINE SMOOTH",
"297 782 OFFCURVE",
"284 1014 OFFCURVE",
"259 1118 CURVE",
"90 1082 LINE",
"110 986 OFFCURVE",
"121 753 OFFCURVE",
"121 566 CURVE SMOOTH",
"121 519 LINE SMOOTH",
"121 364 OFFCURVE",
"131 252 OFFCURVE",
"151 183 CURVE SMOOTH",
"190 43 OFFCURVE",
"275 -20 OFFCURVE",
"431 -20 CURVE SMOOTH"
);
}
);
width = 1065;
}
);
note = uni1959;
unicode = 1959;
},
{
glyphname = uni195A;
lastChange = "2016-11-10 17:38:31 +0000";
layers = (
{
layerId = "B764C7F0-85F8-4672-8E50-094117B7ADAE";
paths = (
{
closed = 1;
nodes = (
"533 -20 OFFCURVE",
"705 48 OFFCURVE",
"818 141 CURVE",
"885 34 OFFCURVE",
"977 -20 OFFCURVE",
"1093 -20 CURVE SMOOTH",
"1206 -20 OFFCURVE",
"1299 28 OFFCURVE",
"1431 157 CURVE",
"1428 90 OFFCURVE",
"1424 31 OFFCURVE",
"1417 -20 CURVE",
"1591 20 LINE",
"1604 180 OFFCURVE",
"1611 295 OFFCURVE",
"1611 366 CURVE SMOOTH",
"1611 394 LINE SMOOTH",
"1611 497 OFFCURVE",
"1593 589 OFFCURVE",
"1557 672 CURVE SMOOTH",
"1485 836 OFFCURVE",
"1362 919 OFFCURVE",
"1207 919 CURVE SMOOTH",
"1078 919 OFFCURVE",
"951 836 OFFCURVE",
"884 720 CURVE",
"884 821 OFFCURVE",
"892 897 OFFCURVE",
"907 948 CURVE SMOOTH",
"922 998 OFFCURVE",
"949 1023 OFFCURVE",
"989 1023 CURVE SMOOTH",
"1014 1023 OFFCURVE",
"1044 1017 OFFCURVE",
"1078 1004 CURVE",
"1113 1071 LINE",
"1056 1102 OFFCURVE",
"1011 1118 OFFCURVE",
"977 1118 CURVE SMOOTH",
"923 1118 OFFCURVE",
"877 1098 OFFCURVE",
"839 1057 CURVE SMOOTH",
"762 976 OFFCURVE",
"720 803 OFFCURVE",
"720 606 CURVE SMOOTH",
"720 527 LINE SMOOTH",
"720 422 OFFCURVE",
"738 322 OFFCURVE",
"774 229 CURVE",
"682 150 OFFCURVE",
"582 110 OFFCURVE",
"473 110 CURVE SMOOTH",
"372 110 OFFCURVE",
"327 152 OFFCURVE",
"307 260 CURVE SMOOTH",
"296 314 OFFCURVE",
"291 405 OFFCURVE",
"291 532 CURVE SMOOTH",
"291 571 LINE SMOOTH",
"291 803 OFFCURVE",
"280 976 OFFCURVE",
"259 1091 CURVE",
"90 1051 LINE",
"103 960 OFFCURVE",
"115 750 OFFCURVE",
"115 566 CURVE SMOOTH",
"115 519 LINE SMOOTH",
"115 364 OFFCURVE",
"125 252 OFFCURVE",
"145 183 CURVE SMOOTH",
"184 43 OFFCURVE",
"269 -20 OFFCURVE",
"425 -20 CURVE SMOOTH"
);
},
{
closed = 1;
nodes = (
"991 111 OFFCURVE",
"896 256 OFFCURVE",
"896 479 CURVE SMOOTH",
"896 541 OFFCURVE",
"909 597 OFFCURVE",
"934 648 CURVE SMOOTH",
"984 749 OFFCURVE",
"1082 811 OFFCURVE",
"1190 811 CURVE SMOOTH",
"1341 811 OFFCURVE",
"1435 680 OFFCURVE",
"1435 480 CURVE SMOOTH",
"1435 411 OFFCURVE",
"1422 349 OFFCURVE",
"1397 292 CURVE SMOOTH",
"1346 178 OFFCURVE",
"1253 111 OFFCURVE",
"1136 111 CURVE SMOOTH"
);
}
);
width = 1701;
}
);
note = uni195A;
unicode = 195A;
},
{
glyphname = uni195B;
lastChange = "2016-11-10 17:38:31 +0000";
layers = (
{
layerId = "B764C7F0-85F8-4672-8E50-094117B7ADAE";
paths = (
{
closed = 1;
nodes = (
"502 -20 OFFCURVE",
"646 29 OFFCURVE",
"766 109 CURVE",
"758 -20 LINE",
"932 20 LINE",
"945 169 OFFCURVE",
"953 462 OFFCURVE",
"953 622 CURVE SMOOTH",
"953 849 OFFCURVE",
"942 1015 OFFCURVE",
"921 1118 CURVE",
"757 1098 LINE",
"767 1019 OFFCURVE",
"773 920 OFFCURVE",
"776 803 CURVE",
"647 776 OFFCURVE",
"483 751 OFFCURVE",
"285 728 CURVE",
"282 864 OFFCURVE",
"268 976 OFFCURVE",
"245 1065 CURVE",
"90 1025 LINE",
"104 950 OFFCURVE",
"111 830 OFFCURVE",
"111 665 CURVE SMOOTH",
"111 519 LINE SMOOTH",
"111 360 OFFCURVE",
"120 246 OFFCURVE",
"139 178 CURVE SMOOTH",
"176 42 OFFCURVE",
"256 -20 OFFCURVE",
"411 -20 CURVE SMOOTH"
);
},
{
closed = 1;
nodes = (
"362 110 OFFCURVE",
"321 148 OFFCURVE",
"302 250 CURVE SMOOTH",
"292 301 OFFCURVE",
"287 395 OFFCURVE",
"287 532 CURVE SMOOTH",
"287 590 LINE",
"499 629 OFFCURVE",
"662 664 OFFCURVE",
"777 696 CURVE",
"777 604 LINE SMOOTH",
"777 464 OFFCURVE",
"775 341 OFFCURVE",
"771 236 CURVE",
"672 152 OFFCURVE",
"559 110 OFFCURVE",
"459 110 CURVE SMOOTH"
);
}
);
width = 1043;
}
);
note = uni195B;
unicode = 195B;
},
{
glyphname = uni195C;
lastChange = "2016-11-10 17:38:31 +0000";
layers = (
{
layerId = "B764C7F0-85F8-4672-8E50-094117B7ADAE";
paths = (
{
closed = 1;
nodes = (
"1245 -370 OFFCURVE",
"1328 -341 OFFCURVE",
"1397 -284 CURVE SMOOTH",
"1535 -169 OFFCURVE",
"1611 68 OFFCURVE",
"1611 408 CURVE SMOOTH",
"1611 508 OFFCURVE",
"1593 599 OFFCURVE",
"1556 680 CURVE SMOOTH",
"1483 842 OFFCURVE",
"1356 919 OFFCURVE",
"1189 919 CURVE SMOOTH",
"1074 919 OFFCURVE",
"955 847 OFFCURVE",
"884 720 CURVE",
"884 835 OFFCURVE",
"893 915 OFFCURVE",
"910 958 CURVE SMOOTH",
"927 1001 OFFCURVE",
"955 1023 OFFCURVE",
"995 1023 CURVE SMOOTH",
"1034 1023 OFFCURVE",
"1057 1012 OFFCURVE",
"1078 1004 CURVE",
"1113 1071 LINE",
"1056 1102 OFFCURVE",
"1011 1118 OFFCURVE",
"977 1118 CURVE SMOOTH",
"923 1118 OFFCURVE",
"877 1098 OFFCURVE",
"839 1057 CURVE SMOOTH",
"762 976 OFFCURVE",
"720 803 OFFCURVE",
"720 606 CURVE SMOOTH",
"720 538 LINE SMOOTH",
"720 417 OFFCURVE",
"737 314 OFFCURVE",
"772 227 CURVE",
"680 151 OFFCURVE",
"573 110 OFFCURVE",
"473 110 CURVE SMOOTH",
"372 110 OFFCURVE",
"327 152 OFFCURVE",
"307 260 CURVE SMOOTH",
"296 314 OFFCURVE",
"291 405 OFFCURVE",
"291 532 CURVE SMOOTH",
"291 571 LINE SMOOTH",
"291 803 OFFCURVE",
"280 976 OFFCURVE",
"259 1091 CURVE",
"90 1051 LINE",
"103 960 OFFCURVE",
"115 750 OFFCURVE",
"115 566 CURVE SMOOTH",
"115 519 LINE SMOOTH",
"115 364 OFFCURVE",
"125 252 OFFCURVE",
"145 183 CURVE SMOOTH",
"184 43 OFFCURVE",
"269 -20 OFFCURVE",
"425 -20 CURVE SMOOTH",
"537 -20 OFFCURVE",
"704 50 OFFCURVE",
"816 139 CURVE",
"884 33 OFFCURVE",
"982 -20 OFFCURVE",
"1110 -20 CURVE SMOOTH",
"1229 -20 OFFCURVE",
"1337 31 OFFCURVE",
"1435 133 CURVE",
"1414 -128 OFFCURVE",
"1321 -255 OFFCURVE",
"1132 -255 CURVE SMOOTH",
"1057 -255 OFFCURVE",
"949 -237 OFFCURVE",
"873 -202 CURVE",
"873 -316 LINE",
"945 -348 OFFCURVE",
"1057 -370 OFFCURVE",
"1149 -370 CURVE SMOOTH"
);
},
{
closed = 1;
nodes = (
"991 111 OFFCURVE",
"896 256 OFFCURVE",
"896 479 CURVE SMOOTH",
"896 541 OFFCURVE",
"909 597 OFFCURVE",
"934 648 CURVE SMOOTH",
"984 749 OFFCURVE",
"1082 811 OFFCURVE",
"1190 811 CURVE SMOOTH",
"1341 811 OFFCURVE",
"1435 680 OFFCURVE",
"1435 480 CURVE SMOOTH",
"1435 411 OFFCURVE",
"1422 349 OFFCURVE",
"1397 292 CURVE SMOOTH",
"1346 178 OFFCURVE",
"1253 111 OFFCURVE",
"1136 111 CURVE SMOOTH"
);
}
);
width = 1701;
}
);
note = uni195C;
unicode = 195C;
},
{
glyphname = uni195D;
lastChange = "2016-11-10 17:38:31 +0000";
layers = (
{
layerId = "B764C7F0-85F8-4672-8E50-094117B7ADAE";
paths = (
{
closed = 1;
nodes = (
"634 -20 OFFCURVE",
"799 61 OFFCURVE",
"916 181 CURVE",
"908 -20 LINE",
"1082 20 LINE",
"1088 199 OFFCURVE",
"1091 388 OFFCURVE",
"1091 589 CURVE SMOOTH",
"1091 929 OFFCURVE",
"932 1118 OFFCURVE",
"644 1118 CURVE SMOOTH",
"539 1118 OFFCURVE",
"412 1054 OFFCURVE",
"288 921 CURVE",
"283 988 OFFCURVE",
"274 1051 OFFCURVE",
"261 1110 CURVE",
"90 1036 LINE",
"107 935 OFFCURVE",
"116 838 OFFCURVE",
"116 747 CURVE SMOOTH",
"116 551 LINE SMOOTH",
"116 164 OFFCURVE",
"250 -20 OFFCURVE",
"525 -20 CURVE SMOOTH"
);
},
{
closed = 1;
nodes = (
"393 110 OFFCURVE",
"292 264 OFFCURVE",
"292 551 CURVE SMOOTH",
"292 827 OFFCURVE",
"410 988 OFFCURVE",
"615 988 CURVE SMOOTH",
"816 988 OFFCURVE",
"915 855 OFFCURVE",
"915 563 CURVE SMOOTH",
"915 268 OFFCURVE",
"796 110 OFFCURVE",
"568 110 CURVE SMOOTH"
);
}
);
width = 1181;
}
);
note = uni195D;
unicode = 195D;
},
{
glyphname = uni195E;
lastChange = "2016-11-10 17:38:31 +0000";
layers = (
{
layerId = "B764C7F0-85F8-4672-8E50-094117B7ADAE";
paths = (
{
closed = 1;
nodes = (
"853 -370 OFFCURVE",
"1021 -101 OFFCURVE",
"1021 423 CURVE SMOOTH",
"1021 548 LINE SMOOTH",
"1021 645 OFFCURVE",
"1008 735 OFFCURVE",
"981 819 CURVE",
"1060 928 OFFCURVE",
"1169 988 OFFCURVE",
"1297 988 CURVE SMOOTH",
"1388 988 OFFCURVE",
"1435 950 OFFCURVE",
"1456 857 CURVE SMOOTH",
"1467 810 OFFCURVE",
"1472 731 OFFCURVE",
"1472 618 CURVE SMOOTH",
"1472 463 OFFCURVE",
"1450 191 OFFCURVE",
"1421 -20 CURVE",
"1601 20 LINE",
"1625 143 OFFCURVE",
"1648 445 OFFCURVE",
"1648 606 CURVE SMOOTH",
"1648 751 OFFCURVE",
"1638 857 OFFCURVE",
"1619 923 CURVE SMOOTH",
"1579 1054 OFFCURVE",
"1497 1118 OFFCURVE",
"1345 1118 CURVE SMOOTH",
"1217 1118 OFFCURVE",
"1046 1034 OFFCURVE",
"942 913 CURVE",
"871 1046 OFFCURVE",
"759 1118 OFFCURVE",
"614 1118 CURVE SMOOTH",
"489 1118 OFFCURVE",
"356 1033 OFFCURVE",
"287 913 CURVE",
"280 987 OFFCURVE",
"275 1033 OFFCURVE",
"272 1052 CURVE SMOOTH",
"269 1071 OFFCURVE",
"265 1090 OFFCURVE",
"261 1110 CURVE",
"90 1036 LINE",
"107 935 OFFCURVE",
"116 838 OFFCURVE",
"116 747 CURVE SMOOTH",
"116 576 LINE SMOOTH",
"116 485 OFFCURVE",
"134 397 OFFCURVE",
"170 314 CURVE SMOOTH",
"242 146 OFFCURVE",
"364 59 OFFCURVE",
"516 59 CURVE SMOOTH",
"621 59 OFFCURVE",
"767 136 OFFCURVE",
"851 236 CURVE",
"844 111 OFFCURVE",
"828 13 OFFCURVE",
"805 -57 CURVE SMOOTH",
"758 -198 OFFCURVE",
"686 -255 OFFCURVE",
"513 -255 CURVE SMOOTH",
"445 -255 OFFCURVE",
"311 -221 OFFCURVE",
"270 -202 CURVE",
"270 -309 LINE",
"325 -340 OFFCURVE",
"462 -370 OFFCURVE",
"529 -370 CURVE SMOOTH"
);
},
{
closed = 1;
nodes = (
"381 190 OFFCURVE",
"292 319 OFFCURVE",
"292 548 CURVE SMOOTH",
"292 811 OFFCURVE",
"410 998 OFFCURVE",
"586 998 CURVE SMOOTH",
"750 998 OFFCURVE",
"845 868 OFFCURVE",
"845 665 CURVE SMOOTH",
"845 348 OFFCURVE",
"737 190 OFFCURVE",
"532 190 CURVE SMOOTH"
);
}
);
width = 1738;
}
);
note = uni195E;
unicode = 195E;
},
{
glyphname = uni195F;
lastChange = "2016-11-10 17:38:31 +0000";
layers = (
{
layerId = "B764C7F0-85F8-4672-8E50-094117B7ADAE";
paths = (
{
closed = 1;
nodes = (
"356 -260 OFFCURVE",
"451 -198 OFFCURVE",
"511 -73 CURVE SMOOTH",
"570 51 OFFCURVE",
"600 261 OFFCURVE",
"600 556 CURVE SMOOTH",
"600 626 LINE",
"597 757 LINE",
"669 901 OFFCURVE",
"799 988 OFFCURVE",
"951 988 CURVE SMOOTH",
"1042 988 OFFCURVE",
"1089 950 OFFCURVE",
"1110 857 CURVE SMOOTH",
"1121 810 OFFCURVE",
"1126 731 OFFCURVE",
"1126 618 CURVE SMOOTH",
"1126 463 OFFCURVE",
"1104 191 OFFCURVE",
"1075 -20 CURVE",
"1255 20 LINE",
"1279 143 OFFCURVE",
"1302 445 OFFCURVE",
"1302 606 CURVE SMOOTH",
"1302 751 OFFCURVE",
"1292 857 OFFCURVE",
"1273 923 CURVE SMOOTH",
"1233 1054 OFFCURVE",
"1151 1118 OFFCURVE",
"999 1118 CURVE SMOOTH",
"862 1118 OFFCURVE",
"679 1023 OFFCURVE",
"582 896 CURVE",
"550 1055 OFFCURVE",
"488 1118 OFFCURVE",
"395 1118 CURVE SMOOTH",
"323 1118 OFFCURVE",
"248 1072 OFFCURVE",
"169 979 CURVE",
"165 1043 OFFCURVE",
"155 1104 OFFCURVE",
"138 1162 CURVE",
"-20 1107 LINE",
"0 1013 OFFCURVE",
"12 900 OFFCURVE",
"15 768 CURVE",
"154 774 LINE",
"203 917 OFFCURVE",
"261 988 OFFCURVE",
"326 988 CURVE SMOOTH",
"364 988 OFFCURVE",
"390 967 OFFCURVE",
"404 925 CURVE SMOOTH",
"417 883 OFFCURVE",
"424 796 OFFCURVE",
"424 665 CURVE SMOOTH",
"424 571 LINE SMOOTH",
"424 318 OFFCURVE",
"419 150 OFFCURVE",
"409 69 CURVE SMOOTH",
"389 -94 OFFCURVE",
"342 -145 OFFCURVE",
"215 -145 CURVE SMOOTH",
"160 -145 OFFCURVE",
"102 -132 OFFCURVE",
"41 -105 CURVE",
"41 -212 LINE",
"107 -244 OFFCURVE",
"168 -260 OFFCURVE",
"225 -260 CURVE SMOOTH"
);
}
);
width = 1392;
}
);
note = uni195F;
unicode = 195F;
},
{
glyphname = uni1960;
lastChange = "2016-11-10 17:38:31 +0000";
layers = (
{
layerId = "B764C7F0-85F8-4672-8E50-094117B7ADAE";
paths = (
{
closed = 1;
nodes = (
"658 -490 OFFCURVE",
"764 -417 OFFCURVE",
"836 -293 CURVE SMOOTH",
"908 -169 OFFCURVE",
"950 20 OFFCURVE",
"950 325 CURVE SMOOTH",
"950 598 OFFCURVE",
"920 798 OFFCURVE",
"861 926 CURVE SMOOTH",
"801 1054 OFFCURVE",
"707 1118 OFFCURVE",
"580 1118 CURVE SMOOTH",
"457 1118 OFFCURVE",
"356 1073 OFFCURVE",
"279 982 CURVE",
"276 1039 OFFCURVE",
"265 1099 OFFCURVE",
"248 1162 CURVE",
"90 1107 LINE",
"110 1013 OFFCURVE",
"122 900 OFFCURVE",
"125 768 CURVE",
"265 774 LINE",
"306 917 OFFCURVE",
"386 988 OFFCURVE",
"506 988 CURVE SMOOTH",
"666 988 OFFCURVE",
"730 908 OFFCURVE",
"758 673 CURVE",
"688 676 LINE",
"566 676 OFFCURVE",
"461 660 OFFCURVE",
"373 629 CURVE SMOOTH",
"196 565 OFFCURVE",
"100 448 OFFCURVE",
"100 305 CURVE SMOOTH",
"100 98 OFFCURVE",
"230 -20 OFFCURVE",
"446 -20 CURVE SMOOTH",
"561 -20 OFFCURVE",
"668 10 OFFCURVE",
"767 71 CURVE",
"761 -48 OFFCURVE",
"749 -138 OFFCURVE",
"730 -200 CURVE SMOOTH",
"693 -325 OFFCURVE",
"631 -375 OFFCURVE",
"482 -375 CURVE SMOOTH",
"383 -375 OFFCURVE",
"269 -342 OFFCURVE",
"210 -290 CURVE",
"210 -404 LINE",
"274 -453 OFFCURVE",
"388 -490 OFFCURVE",
"503 -490 CURVE SMOOTH"
);
},
{
closed = 1;
nodes = (
"364 110 OFFCURVE",
"285 184 OFFCURVE",
"285 303 CURVE SMOOTH",
"285 464 OFFCURVE",
"434 561 OFFCURVE",
"685 561 CURVE",
"768 558 LINE",
"771 478 OFFCURVE",
"773 406 OFFCURVE",
"773 341 CURVE SMOOTH",
"771 196 LINE",
"700 143 OFFCURVE",
"588 110 OFFCURVE",
"487 110 CURVE SMOOTH"
);
}
);
width = 1040;
}
);
note = uni1960;
unicode = 1960;
},
{
glyphname = uni1961;
lastChange = "2016-11-10 17:38:31 +0000";
layers = (
{
layerId = "B764C7F0-85F8-4672-8E50-094117B7ADAE";
paths = (
{
closed = 1;
nodes = (
"1096 -490 OFFCURVE",
"1251 -230 OFFCURVE",
"1251 381 CURVE SMOOTH",
"1251 433 LINE SMOOTH",
"1251 654 OFFCURVE",
"1235 992 OFFCURVE",
"1219 1068 CURVE",
"1055 1048 LINE",
"1068 938 OFFCURVE",
"1075 755 OFFCURVE",
"1075 498 CURVE SMOOTH",
"1075 237 LINE",
"987 154 OFFCURVE",
"876 110 OFFCURVE",
"772 110 CURVE SMOOTH",
"675 110 OFFCURVE",
"634 148 OFFCURVE",
"615 250 CURVE SMOOTH",
"605 301 OFFCURVE",
"600 395 OFFCURVE",
"600 532 CURVE SMOOTH",
"600 626 LINE SMOOTH",
"600 752 OFFCURVE",
"593 849 OFFCURVE",
"578 917 CURVE SMOOTH",
"549 1052 OFFCURVE",
"486 1118 OFFCURVE",
"395 1118 CURVE SMOOTH",
"323 1118 OFFCURVE",
"248 1072 OFFCURVE",
"169 979 CURVE",
"165 1043 OFFCURVE",
"155 1104 OFFCURVE",
"138 1162 CURVE",
"-20 1107 LINE",
"0 1013 OFFCURVE",
"12 900 OFFCURVE",
"15 768 CURVE",
"154 774 LINE",
"203 917 OFFCURVE",
"261 988 OFFCURVE",
"326 988 CURVE SMOOTH",
"364 988 OFFCURVE",
"390 967 OFFCURVE",
"404 925 CURVE SMOOTH",
"417 883 OFFCURVE",
"424 796 OFFCURVE",
"424 665 CURVE SMOOTH",
"424 519 LINE SMOOTH",
"424 360 OFFCURVE",
"433 246 OFFCURVE",
"452 178 CURVE SMOOTH",
"489 42 OFFCURVE",
"569 -20 OFFCURVE",
"724 -20 CURVE SMOOTH",
"817 -20 OFFCURVE",
"960 33 OFFCURVE",
"1073 114 CURVE",
"1070 -13 OFFCURVE",
"1057 -110 OFFCURVE",
"1035 -177 CURVE SMOOTH",
"991 -312 OFFCURVE",
"906 -375 OFFCURVE",
"762 -375 CURVE SMOOTH",
"661 -375 OFFCURVE",
"550 -345 OFFCURVE",
"490 -290 CURVE",
"490 -404 LINE",
"545 -447 OFFCURVE",
"672 -490 OFFCURVE",
"772 -490 CURVE SMOOTH"
);
}
);
width = 1341;
}
);
note = uni1961;
unicode = 1961;
},
{
glyphname = uni1962;
lastChange = "2016-11-10 17:38:31 +0000";
layers = (
{
layerId = "B764C7F0-85F8-4672-8E50-094117B7ADAE";
paths = (
{
closed = 1;
nodes = (
"291 18 LINE",
"310 71 OFFCURVE",
"361 174 OFFCURVE",
"442 326 CURVE SMOOTH",
"604 630 OFFCURVE",
"734 834 OFFCURVE",
"817 921 CURVE",
"826 836 OFFCURVE",
"831 717 OFFCURVE",
"831 566 CURVE SMOOTH",
"831 323 OFFCURVE",
"827 127 OFFCURVE",
"818 -20 CURVE",
"992 20 LINE",
"999 99 OFFCURVE",
"1007 378 OFFCURVE",
"1007 571 CURVE SMOOTH",
"1007 670 OFFCURVE",
"1006 750 OFFCURVE",
"1004 809 CURVE SMOOTH",
"1000 928 OFFCURVE",
"991 1002 OFFCURVE",
"976 1054 CURVE SMOOTH",
"961 1105 OFFCURVE",
"949 1118 OFFCURVE",
"890 1118 CURVE SMOOTH",
"864 1118 OFFCURVE",
"829 1095 OFFCURVE",
"785 1048 CURVE SMOOTH",
"741 1001 OFFCURVE",
"689 931 OFFCURVE",
"628 836 CURVE SMOOTH",
"506 647 OFFCURVE",
"362 374 OFFCURVE",
"302 246 CURVE",
"307 571 LINE SMOOTH",
"307 782 OFFCURVE",
"294 1014 OFFCURVE",
"269 1118 CURVE",
"100 1082 LINE",
"120 986 OFFCURVE",
"131 753 OFFCURVE",
"131 566 CURVE SMOOTH",
"131 323 OFFCURVE",
"127 127 OFFCURVE",
"118 -20 CURVE"
);
}
);
width = 1097;
}
);
note = uni1962;
unicode = 1962;
},
{
glyphname = uni1963;
lastChange = "2016-11-10 17:38:31 +0000";
layers = (
{
layerId = "B764C7F0-85F8-4672-8E50-094117B7ADAE";
paths = (
{
closed = 1;
nodes = (
"489 87 LINE",
"369 102 OFFCURVE",
"337 131 OFFCURVE",
"320 212 CURVE SMOOTH",
"311 253 OFFCURVE",
"307 320 OFFCURVE",
"307 413 CURVE SMOOTH",
"307 1318 LINE SMOOTH",
"307 1554 OFFCURVE",
"287 1725 OFFCURVE",
"248 1830 CURVE",
"90 1800 LINE",
"117 1737 OFFCURVE",
"131 1589 OFFCURVE",
"131 1357 CURVE SMOOTH",
"131 423 LINE SMOOTH",
"131 300 OFFCURVE",
"141 210 OFFCURVE",
"162 152 CURVE SMOOTH",
"202 36 OFFCURVE",
"286 -11 OFFCURVE",
"489 -20 CURVE"
);
}
);
width = 489;
}
);
note = uni1963;
unicode = 1963;
},
{
glyphname = uni1964;
lastChange = "2016-11-10 17:38:31 +0000";
layers = (
{
layerId = "B764C7F0-85F8-4672-8E50-094117B7ADAE";
paths = (
{
closed = 1;
nodes = (
"316 20 LINE",
"293 151 OFFCURVE",
"276 412 OFFCURVE",
"276 736 CURVE SMOOTH",
"276 1098 LINE SMOOTH",
"276 1317 OFFCURVE",
"300 1477 OFFCURVE",
"347 1578 CURVE SMOOTH",
"394 1679 OFFCURVE",
"464 1730 OFFCURVE",
"556 1730 CURVE SMOOTH",
"708 1730 OFFCURVE",
"787 1627 OFFCURVE",
"825 1391 CURVE SMOOTH",
"844 1272 OFFCURVE",
"853 1103 OFFCURVE",
"853 883 CURVE",
"572 848 OFFCURVE",
"405 664 OFFCURVE",
"405 395 CURVE SMOOTH",
"405 316 OFFCURVE",
"422 244 OFFCURVE",
"457 181 CURVE SMOOTH",
"525 54 OFFCURVE",
"657 -20 OFFCURVE",
"821 -20 CURVE SMOOTH",
"886 -20 OFFCURVE",
"946 -14 OFFCURVE",
"1000 -2 CURVE",
"1017 151 OFFCURVE",
"1025 456 OFFCURVE",
"1025 911 CURVE SMOOTH",
"1025 1564 OFFCURVE",
"881 1860 OFFCURVE",
"556 1860 CURVE SMOOTH",
"265 1860 OFFCURVE",
"100 1558 OFFCURVE",
"100 1078 CURVE SMOOTH",
"100 739 LINE SMOOTH",
"100 515 OFFCURVE",
"124 93 OFFCURVE",
"140 -20 CURVE"
);
},
{
closed = 1;
nodes = (
"789 95 OFFCURVE",
"747 107 OFFCURVE",
"709 132 CURVE SMOOTH",
"632 180 OFFCURVE",
"585 271 OFFCURVE",
"585 399 CURVE SMOOTH",
"585 611 OFFCURVE",
"681 734 OFFCURVE",
"852 765 CURVE",
"852 480 OFFCURVE",
"846 256 OFFCURVE",
"835 95 CURVE"
);
}
);
width = 1125;
}
);
note = uni1964;
unicode = 1964;
},
{
glyphname = uni1965;
lastChange = "2016-11-10 17:38:31 +0000";
layers = (
{
layerId = "B764C7F0-85F8-4672-8E50-094117B7ADAE";
paths = (
{
closed = 1;
nodes = (
"306 20 LINE",
"290 197 OFFCURVE",
"276 484 OFFCURVE",
"276 716 CURVE SMOOTH",
"276 1118 LINE SMOOTH",
"276 1322 OFFCURVE",
"297 1475 OFFCURVE",
"339 1577 CURVE SMOOTH",
"380 1679 OFFCURVE",
"440 1730 OFFCURVE",
"519 1730 CURVE SMOOTH",
"610 1730 OFFCURVE",
"677 1664 OFFCURVE",
"719 1532 CURVE SMOOTH",
"760 1399 OFFCURVE",
"781 1197 OFFCURVE",
"781 926 CURVE SMOOTH",
"781 681 OFFCURVE",
"777 455 OFFCURVE",
"768 250 CURVE",
"942 290 LINE",
"942 337 OFFCURVE",
"944 415 OFFCURVE",
"948 525 CURVE SMOOTH",
"951 635 OFFCURVE",
"953 774 OFFCURVE",
"953 941 CURVE SMOOTH",
"953 1252 OFFCURVE",
"918 1483 OFFCURVE",
"848 1634 CURVE SMOOTH",
"778 1785 OFFCURVE",
"668 1860 OFFCURVE",
"519 1860 CURVE SMOOTH",
"434 1860 OFFCURVE",
"361 1831 OFFCURVE",
"299 1772 CURVE SMOOTH",
"175 1655 OFFCURVE",
"100 1406 OFFCURVE",
"100 1098 CURVE SMOOTH",
"100 719 LINE SMOOTH",
"103 534 OFFCURVE",
"107 405 OFFCURVE",
"110 331 CURVE SMOOTH",
"113 257 OFFCURVE",
"116 202 OFFCURVE",
"118 166 CURVE SMOOTH",
"122 93 OFFCURVE",
"126 24 OFFCURVE",
"130 -20 CURVE"
);
}
);
width = 1053;
}
);
note = uni1965;
unicode = 1965;
},
{
glyphname = uni1966;
lastChange = "2016-11-10 17:38:31 +0000";
layers = (
{
layerId = "B764C7F0-85F8-4672-8E50-094117B7ADAE";
paths = (
{
closed = 1;
nodes = (
"700 -490 OFFCURVE",
"787 -464 OFFCURVE",
"848 -411 CURVE SMOOTH",
"971 -306 OFFCURVE",
"1025 -83 OFFCURVE",
"1025 318 CURVE SMOOTH",
"1025 911 LINE SMOOTH",
"1025 1564 OFFCURVE",
"881 1860 OFFCURVE",
"556 1860 CURVE SMOOTH",
"265 1860 OFFCURVE",
"100 1558 OFFCURVE",
"100 1078 CURVE SMOOTH",
"100 739 LINE SMOOTH",
"100 515 OFFCURVE",
"124 93 OFFCURVE",
"140 -20 CURVE",
"316 20 LINE",
"293 151 OFFCURVE",
"276 412 OFFCURVE",
"276 736 CURVE SMOOTH",
"276 1098 LINE SMOOTH",
"276 1317 OFFCURVE",
"300 1477 OFFCURVE",
"347 1578 CURVE SMOOTH",
"394 1679 OFFCURVE",
"464 1730 OFFCURVE",
"556 1730 CURVE SMOOTH",
"705 1730 OFFCURVE",
"784 1631 OFFCURVE",
"821 1398 CURVE SMOOTH",
"840 1281 OFFCURVE",
"849 1114 OFFCURVE",
"849 896 CURVE SMOOTH",
"849 202 LINE SMOOTH",
"849 -33 OFFCURVE",
"834 -175 OFFCURVE",
"800 -257 CURVE SMOOTH",
"766 -339 OFFCURVE",
"719 -375 OFFCURVE",
"568 -375 CURVE SMOOTH",
"463 -375 OFFCURVE",
"315 -320 OFFCURVE",
"248 -260 CURVE",
"248 -380 LINE",
"320 -436 OFFCURVE",
"479 -490 OFFCURVE",
"588 -490 CURVE SMOOTH"
);
}
);
width = 1125;
}
);
note = uni1966;
unicode = 1966;
},
{
glyphname = uni1967;
lastChange = "2016-11-10 17:38:31 +0000";
layers = (
{
layerId = "B764C7F0-85F8-4672-8E50-094117B7ADAE";
paths = (
{
closed = 1;
nodes = (
"617 -257 OFFCURVE",
"779 -238 OFFCURVE",
"990 -201 CURVE",
"970 -111 LINE",
"807 -132 OFFCURVE",
"662 -142 OFFCURVE",
"535 -142 CURVE SMOOTH",
"469 -142 OFFCURVE",
"422 -133 OFFCURVE",
"393 -114 CURVE SMOOTH",
"335 -78 OFFCURVE",
"307 4 OFFCURVE",
"307 152 CURVE SMOOTH",
"307 579 LINE SMOOTH",
"307 822 OFFCURVE",
"287 1021 OFFCURVE",
"248 1121 CURVE",
"90 1091 LINE",
"117 1026 OFFCURVE",
"131 869 OFFCURVE",
"131 618 CURVE SMOOTH",
"131 244 LINE SMOOTH",
"131 -124 OFFCURVE",
"234 -257 OFFCURVE",
"503 -257 CURVE SMOOTH"
);
},
{
closed = 1;
nodes = (
"625 -490 OFFCURVE",
"858 -449 OFFCURVE",
"994 -400 CURVE",
"975 -311 LINE",
"812 -355 OFFCURVE",
"686 -372 OFFCURVE",
"509 -372 CURVE SMOOTH",
"321 -372 OFFCURVE",
"185 -304 OFFCURVE",
"100 -167 CURVE",
"-2 -280 LINE",
"35 -332 OFFCURVE",
"76 -373 OFFCURVE",
"123 -403 CURVE SMOOTH",
"215 -463 OFFCURVE",
"309 -490 OFFCURVE",
"484 -490 CURVE SMOOTH"
);
}
);
width = 594;
}
);
note = uni1967;
unicode = 1967;
},
{
glyphname = uni1968;
lastChange = "2016-11-10 17:38:31 +0000";
layers = (
{
layerId = "B764C7F0-85F8-4672-8E50-094117B7ADAE";
paths = (
{
closed = 1;
nodes = (
"662 -490 OFFCURVE",
"836 -465 OFFCURVE",
"1025 -416 CURVE",
"1005 -322 LINE",
"902 -350 OFFCURVE",
"707 -375 OFFCURVE",
"535 -375 CURVE SMOOTH",
"469 -375 OFFCURVE",
"422 -366 OFFCURVE",
"393 -347 CURVE SMOOTH",
"335 -311 OFFCURVE",
"307 -229 OFFCURVE",
"307 -81 CURVE SMOOTH",
"307 576 LINE SMOOTH",
"307 819 OFFCURVE",
"287 1018 OFFCURVE",
"248 1118 CURVE",
"90 1088 LINE",
"117 1023 OFFCURVE",
"131 866 OFFCURVE",
"131 615 CURVE SMOOTH",
"131 11 LINE SMOOTH",
"131 -357 OFFCURVE",
"234 -490 OFFCURVE",
"503 -490 CURVE SMOOTH"
);
}
);
width = 505;
}
);
note = uni1968;
unicode = 1968;
},
{
glyphname = uni1969;
lastChange = "2016-11-10 17:38:31 +0000";
layers = (
{
layerId = "B764C7F0-85F8-4672-8E50-094117B7ADAE";
paths = (
{
closed = 1;
nodes = (
"595 -490 OFFCURVE",
"667 -456 OFFCURVE",
"729 -388 CURVE SMOOTH",
"852 -252 OFFCURVE",
"928 43 OFFCURVE",
"928 368 CURVE SMOOTH",
"928 501 LINE SMOOTH",
"928 640 OFFCURVE",
"899 1017 OFFCURVE",
"876 1118 CURVE",
"719 1098 LINE",
"742 906 OFFCURVE",
"752 598 OFFCURVE",
"752 450 CURVE SMOOTH",
"752 228 LINE SMOOTH",
"752 67 OFFCURVE",
"745 -52 OFFCURVE",
"731 -128 CURVE SMOOTH",
"703 -281 OFFCURVE",
"643 -360 OFFCURVE",
"539 -360 CURVE SMOOTH",
"427 -360 OFFCURVE",
"369 -311 OFFCURVE",
"330 -202 CURVE SMOOTH",
"290 -94 OFFCURVE",
"272 78 OFFCURVE",
"272 334 CURVE SMOOTH",
"272 519 OFFCURVE",
"282 780 OFFCURVE",
"301 1118 CURVE",
"131 1082 LINE",
"115 925 OFFCURVE",
"100 550 OFFCURVE",
"100 319 CURVE SMOOTH",
"100 -245 OFFCURVE",
"229 -490 OFFCURVE",
"513 -490 CURVE SMOOTH"
);
}
);
width = 1028;
}
);
note = uni1969;
unicode = 1969;
},
{
glyphname = uni196A;
lastChange = "2016-11-10 17:38:31 +0000";
layers = (
{
layerId = "B764C7F0-85F8-4672-8E50-094117B7ADAE";
paths = (
{
closed = 1;
nodes = (
"826 -540 OFFCURVE",
"1015 -489 OFFCURVE",
"1225 -388 CURVE",
"1225 -264 LINE",
"994 -369 OFFCURVE",
"823 -410 OFFCURVE",
"659 -410 CURVE SMOOTH",
"584 -410 OFFCURVE",
"522 -393 OFFCURVE",
"473 -359 CURVE SMOOTH",
"375 -292 OFFCURVE",
"320 -160 OFFCURVE",
"295 84 CURVE SMOOTH",
"282 205 OFFCURVE",
"276 389 OFFCURVE",
"276 636 CURVE SMOOTH",
"276 1098 LINE SMOOTH",
"276 1317 OFFCURVE",
"300 1477 OFFCURVE",
"347 1578 CURVE SMOOTH",
"394 1679 OFFCURVE",
"464 1730 OFFCURVE",
"556 1730 CURVE SMOOTH",
"708 1730 OFFCURVE",
"787 1627 OFFCURVE",
"825 1391 CURVE SMOOTH",
"844 1272 OFFCURVE",
"853 1103 OFFCURVE",
"853 883 CURVE",
"572 848 OFFCURVE",
"405 664 OFFCURVE",
"405 395 CURVE SMOOTH",
"405 316 OFFCURVE",
"422 244 OFFCURVE",
"457 181 CURVE SMOOTH",
"525 54 OFFCURVE",
"657 -20 OFFCURVE",
"821 -20 CURVE SMOOTH",
"886 -20 OFFCURVE",
"946 -14 OFFCURVE",
"1000 -2 CURVE",
"1017 151 OFFCURVE",
"1025 456 OFFCURVE",
"1025 911 CURVE SMOOTH",
"1025 1564 OFFCURVE",
"881 1860 OFFCURVE",
"556 1860 CURVE SMOOTH",
"265 1860 OFFCURVE",
"100 1558 OFFCURVE",
"100 1078 CURVE SMOOTH",
"100 639 LINE SMOOTH",
"100 383 OFFCURVE",
"105 200 OFFCURVE",
"116 91 CURVE SMOOTH",
"136 -128 OFFCURVE",
"181 -279 OFFCURVE",
"265 -382 CURVE SMOOTH",
"348 -485 OFFCURVE",
"474 -540 OFFCURVE",
"659 -540 CURVE SMOOTH"
);
},
{
closed = 1;
nodes = (
"789 95 OFFCURVE",
"747 107 OFFCURVE",
"709 132 CURVE SMOOTH",
"632 180 OFFCURVE",
"585 271 OFFCURVE",
"585 399 CURVE SMOOTH",
"585 611 OFFCURVE",
"681 734 OFFCURVE",
"852 765 CURVE",
"852 480 OFFCURVE",
"846 256 OFFCURVE",
"835 95 CURVE"
);
}
);
width = 1125;
}
);
note = uni196A;
unicode = 196A;
},
{
glyphname = uni196B;
lastChange = "2016-11-10 17:38:31 +0000";
layers = (
{
layerId = "B764C7F0-85F8-4672-8E50-094117B7ADAE";
paths = (
{
closed = 1;
nodes = (
"829 -540 OFFCURVE",
"1018 -489 OFFCURVE",
"1225 -388 CURVE",
"1225 -264 LINE",
"1012 -361 OFFCURVE",
"823 -410 OFFCURVE",
"659 -410 CURVE SMOOTH",
"584 -410 OFFCURVE",
"522 -393 OFFCURVE",
"473 -359 CURVE SMOOTH",
"375 -292 OFFCURVE",
"320 -160 OFFCURVE",
"295 84 CURVE SMOOTH",
"282 205 OFFCURVE",
"276 389 OFFCURVE",
"276 636 CURVE SMOOTH",
"276 1134 LINE SMOOTH",
"276 1323 OFFCURVE",
"296 1469 OFFCURVE",
"337 1574 CURVE SMOOTH",
"378 1678 OFFCURVE",
"437 1730 OFFCURVE",
"515 1730 CURVE SMOOTH",
"606 1730 OFFCURVE",
"674 1667 OFFCURVE",
"717 1542 CURVE SMOOTH",
"760 1416 OFFCURVE",
"781 1223 OFFCURVE",
"781 964 CURVE SMOOTH",
"781 875 LINE",
"779 610 LINE",
"952 640 LINE",
"953 786 LINE",
"953 941 LINE SMOOTH",
"953 1247 OFFCURVE",
"917 1477 OFFCURVE",
"846 1630 CURVE SMOOTH",
"775 1783 OFFCURVE",
"666 1860 OFFCURVE",
"519 1860 CURVE SMOOTH",
"434 1860 OFFCURVE",
"361 1830 OFFCURVE",
"299 1771 CURVE SMOOTH",
"175 1652 OFFCURVE",
"100 1391 OFFCURVE",
"100 1098 CURVE SMOOTH",
"100 639 LINE SMOOTH",
"100 383 OFFCURVE",
"105 200 OFFCURVE",
"116 91 CURVE SMOOTH",
"136 -128 OFFCURVE",
"181 -279 OFFCURVE",
"265 -382 CURVE SMOOTH",
"348 -485 OFFCURVE",
"474 -540 OFFCURVE",
"659 -540 CURVE SMOOTH"
);
}
);
width = 1053;
}
);
note = uni196B;
unicode = 196B;
},
{
glyphname = uni196C;
lastChange = "2016-11-10 17:38:31 +0000";
layers = (
{
layerId = "B764C7F0-85F8-4672-8E50-094117B7ADAE";
paths = (
{
closed = 1;
nodes = (
"276 0 LINE",
"276 1134 LINE SMOOTH",
"276 1542 OFFCURVE",
"420 1730 OFFCURVE",
"695 1730 CURVE SMOOTH",
"876 1730 OFFCURVE",
"993 1696 OFFCURVE",
"1154 1580 CURVE",
"1229 1673 LINE",
"1144 1728 OFFCURVE",
"1076 1768 OFFCURVE",
"1025 1791 CURVE SMOOTH",
"921 1837 OFFCURVE",
"815 1860 OFFCURVE",
"687 1860 CURVE SMOOTH",
"566 1860 OFFCURVE",
"461 1832 OFFCURVE",
"374 1775 CURVE SMOOTH",
"199 1661 OFFCURVE",
"100 1418 OFFCURVE",
"100 1098 CURVE SMOOTH",
"100 0 LINE"
);
}
);
width = 429;
}
);
note = uni196C;
unicode = 196C;
},
{
glyphname = uni196D;
lastChange = "2016-11-10 17:38:31 +0000";
layers = (
{
layerId = "B764C7F0-85F8-4672-8E50-094117B7ADAE";
paths = (
{
closed = 1;
nodes = (
"426 -260 OFFCURVE",
"539 -117 OFFCURVE",
"579 183 CURVE",
"664 130 OFFCURVE",
"797 80 OFFCURVE",
"889 80 CURVE SMOOTH",
"1042 80 OFFCURVE",
"1127 142 OFFCURVE",
"1167 277 CURVE SMOOTH",
"1187 344 OFFCURVE",
"1198 449 OFFCURVE",
"1199 592 CURVE SMOOTH",
"1199 622 LINE SMOOTH",
"1199 849 OFFCURVE",
"1188 1015 OFFCURVE",
"1167 1118 CURVE",
"1003 1098 LINE",
"1016 1000 OFFCURVE",
"1023 841 OFFCURVE",
"1023 621 CURVE SMOOTH",
"1023 604 LINE SMOOTH",
"1023 486 OFFCURVE",
"1018 402 OFFCURVE",
"1007 352 CURVE SMOOTH",
"986 251 OFFCURVE",
"940 210 OFFCURVE",
"841 210 CURVE SMOOTH",
"754 210 OFFCURVE",
"670 237 OFFCURVE",
"591 290 CURVE",
"597 371 OFFCURVE",
"600 459 OFFCURVE",
"600 556 CURVE SMOOTH",
"600 626 LINE SMOOTH",
"600 752 OFFCURVE",
"593 849 OFFCURVE",
"578 917 CURVE SMOOTH",
"549 1052 OFFCURVE",
"486 1118 OFFCURVE",
"395 1118 CURVE SMOOTH",
"323 1118 OFFCURVE",
"248 1072 OFFCURVE",
"169 979 CURVE",
"165 1043 OFFCURVE",
"155 1104 OFFCURVE",
"138 1162 CURVE",
"-20 1107 LINE",
"0 1013 OFFCURVE",
"12 900 OFFCURVE",
"15 768 CURVE",
"154 774 LINE",
"203 917 OFFCURVE",
"261 988 OFFCURVE",
"326 988 CURVE SMOOTH",
"364 988 OFFCURVE",
"390 967 OFFCURVE",
"404 925 CURVE SMOOTH",
"417 883 OFFCURVE",
"424 796 OFFCURVE",
"424 665 CURVE SMOOTH",
"424 571 LINE SMOOTH",
"424 318 OFFCURVE",
"419 150 OFFCURVE",
"409 69 CURVE SMOOTH",
"389 -94 OFFCURVE",
"342 -145 OFFCURVE",
"215 -145 CURVE SMOOTH",
"160 -145 OFFCURVE",
"102 -132 OFFCURVE",
"41 -105 CURVE",
"41 -212 LINE",
"107 -244 OFFCURVE",
"168 -260 OFFCURVE",
"225 -260 CURVE SMOOTH"
);
}
);
width = 1289;
}
);
note = uni196D;
unicode = 196D;
},
{
glyphname = uni1970;
lastChange = "2016-11-10 17:38:31 +0000";
layers = (
{
layerId = "B764C7F0-85F8-4672-8E50-094117B7ADAE";
paths = (
{
closed = 1;
nodes = (
"353 20 LINE",
"370 133 OFFCURVE",
"379 407 OFFCURVE",
"379 515 CURVE SMOOTH",
"379 642 OFFCURVE",
"372 791 OFFCURVE",
"357 961 CURVE",
"455 979 OFFCURVE",
"524 988 OFFCURVE",
"564 988 CURVE SMOOTH",
"611 988 OFFCURVE",
"645 981 OFFCURVE",
"666 968 CURVE SMOOTH",
"709 941 OFFCURVE",
"728 882 OFFCURVE",
"728 771 CURVE SMOOTH",
"728 641 LINE SMOOTH",
"728 469 OFFCURVE",
"737 336 OFFCURVE",
"755 243 CURVE SMOOTH",
"791 56 OFFCURVE",
"865 -20 OFFCURVE",
"1017 -20 CURVE SMOOTH",
"1066 -20 OFFCURVE",
"1125 -1 OFFCURVE",
"1194 38 CURVE",
"1194 131 LINE",
"1134 107 OFFCURVE",
"1086 95 OFFCURVE",
"1050 95 CURVE SMOOTH",
"955 95 OFFCURVE",
"929 134 OFFCURVE",
"915 239 CURVE SMOOTH",
"908 291 OFFCURVE",
"904 386 OFFCURVE",
"904 523 CURVE SMOOTH",
"904 762 LINE SMOOTH",
"904 841 OFFCURVE",
"893 907 OFFCURVE",
"872 960 CURVE SMOOTH",
"828 1064 OFFCURVE",
"743 1118 OFFCURVE",
"583 1118 CURVE SMOOTH",
"468 1118 OFFCURVE",
"171 1030 OFFCURVE",
"20 971 CURVE",
"46 886 LINE",
"184 922 LINE",
"197 780 OFFCURVE",
"203 656 OFFCURVE",
"203 549 CURVE SMOOTH",
"200 412 OFFCURVE",
"196 314 OFFCURVE",
"193 253 CURVE SMOOTH",
"190 192 OFFCURVE",
"187 147 OFFCURVE",
"185 117 CURVE SMOOTH",
"181 56 OFFCURVE",
"177 5 OFFCURVE",
"173 -20 CURVE"
);
}
);
width = 1134;
}
);
note = uni1970;
unicode = 1970;
},
{
glyphname = uni1971;
lastChange = "2016-11-10 17:38:31 +0000";
layers = (
{
layerId = "B764C7F0-85F8-4672-8E50-094117B7ADAE";
paths = (
{
closed = 1;
nodes = (
"657 -20 OFFCURVE",
"861 62 OFFCURVE",
"981 166 CURVE",
"945 235 LINE",
"852 167 OFFCURVE",
"677 110 OFFCURVE",
"552 110 CURVE SMOOTH",
"399 110 OFFCURVE",
"301 230 OFFCURVE",
"274 421 CURVE",
"322 421 LINE SMOOTH",
"441 421 OFFCURVE",
"549 441 OFFCURVE",
"646 481 CURVE SMOOTH",
"841 560 OFFCURVE",
"961 707 OFFCURVE",
"961 851 CURVE SMOOTH",
"961 903 OFFCURVE",
"949 949 OFFCURVE",
"924 989 CURVE SMOOTH",
"874 1069 OFFCURVE",
"778 1118 OFFCURVE",
"642 1118 CURVE SMOOTH",
"551 1118 OFFCURVE",
"464 1090 OFFCURVE",
"379 1033 CURVE SMOOTH",
"209 920 OFFCURVE",
"90 712 OFFCURVE",
"90 528 CURVE SMOOTH",
"90 175 OFFCURVE",
"244 -20 OFFCURVE",
"513 -20 CURVE SMOOTH"
);
},
{
closed = 1;
nodes = (
"266 537 LINE",
"266 551 LINE SMOOTH",
"266 822 OFFCURVE",
"387 988 OFFCURVE",
"594 988 CURVE SMOOTH",
"713 988 OFFCURVE",
"785 924 OFFCURVE",
"785 819 CURVE SMOOTH",
"785 644 OFFCURVE",
"600 536 OFFCURVE",
"309 536 CURVE SMOOTH",
"288 536 LINE"
);
}
);
width = 1071;
}
);
note = uni1971;
unicode = 1971;
},
{
glyphname = uni1972;
lastChange = "2016-11-10 17:38:31 +0000";
layers = (
{
layerId = "B764C7F0-85F8-4672-8E50-094117B7ADAE";
paths = (
{
closed = 1;
nodes = (
"614 -20 OFFCURVE",
"764 63 OFFCURVE",
"875 200 CURVE",
"907 49 OFFCURVE",
"975 -20 OFFCURVE",
"1118 -20 CURVE SMOOTH",
"1162 -20 OFFCURVE",
"1208 -6 OFFCURVE",
"1295 42 CURVE",
"1295 131 LINE",
"1235 107 OFFCURVE",
"1187 95 OFFCURVE",
"1151 95 CURVE SMOOTH",
"1068 95 OFFCURVE",
"1042 127 OFFCURVE",
"1030 224 CURVE SMOOTH",
"1023 272 OFFCURVE",
"1020 372 OFFCURVE",
"1020 523 CURVE SMOOTH",
"1020 603 LINE SMOOTH",
"1020 926 OFFCURVE",
"869 1118 OFFCURVE",
"608 1118 CURVE SMOOTH",
"524 1118 OFFCURVE",
"441 1087 OFFCURVE",
"359 1025 CURVE SMOOTH",
"194 901 OFFCURVE",
"90 687 OFFCURVE",
"90 475 CURVE SMOOTH",
"90 380 OFFCURVE",
"107 294 OFFCURVE",
"140 218 CURVE SMOOTH",
"206 66 OFFCURVE",
"330 -20 OFFCURVE",
"477 -20 CURVE SMOOTH"
);
},
{
closed = 1;
nodes = (
"367 110 OFFCURVE",
"266 264 OFFCURVE",
"266 551 CURVE SMOOTH",
"266 827 OFFCURVE",
"373 988 OFFCURVE",
"578 988 CURVE SMOOTH",
"757 988 OFFCURVE",
"844 854 OFFCURVE",
"844 563 CURVE SMOOTH",
"844 242 OFFCURVE",
"743 110 OFFCURVE",
"542 110 CURVE SMOOTH"
);
}
);
width = 1235;
}
);
note = uni1972;
unicode = 1972;
},
{
glyphname = uni1973;
lastChange = "2016-11-10 17:38:31 +0000";
layers = (
{
layerId = "B764C7F0-85F8-4672-8E50-094117B7ADAE";
paths = (
{
closed = 1;
nodes = (
"596 -20 OFFCURVE",
"687 5 OFFCURVE",
"771 56 CURVE SMOOTH",
"939 156 OFFCURVE",
"1028 334 OFFCURVE",
"1028 546 CURVE SMOOTH",
"1028 576 LINE SMOOTH",
"1028 789 OFFCURVE",
"1012 966 OFFCURVE",
"980 1108 CURVE",
"955 1115 OFFCURVE",
"929 1118 OFFCURVE",
"902 1118 CURVE SMOOTH",
"816 1118 OFFCURVE",
"740 1102 OFFCURVE",
"674 1069 CURVE SMOOTH",
"541 1003 OFFCURVE",
"463 879 OFFCURVE",
"463 746 CURVE SMOOTH",
"463 687 OFFCURVE",
"477 633 OFFCURVE",
"506 583 CURVE SMOOTH",
"563 483 OFFCURVE",
"676 420 OFFCURVE",
"812 420 CURVE SMOOTH",
"847 420 LINE",
"826 205 OFFCURVE",
"720 110 OFFCURVE",
"536 110 CURVE SMOOTH",
"475 110 OFFCURVE",
"428 124 OFFCURVE",
"395 152 CURVE SMOOTH",
"327 207 OFFCURVE",
"297 324 OFFCURVE",
"297 532 CURVE SMOOTH",
"297 571 LINE SMOOTH",
"297 782 OFFCURVE",
"284 1014 OFFCURVE",
"259 1118 CURVE",
"90 1082 LINE",
"110 986 OFFCURVE",
"121 753 OFFCURVE",
"121 566 CURVE SMOOTH",
"121 519 LINE SMOOTH",
"121 151 OFFCURVE",
"239 -20 OFFCURVE",
"498 -20 CURVE SMOOTH"
);
},
{
closed = 1;
nodes = (
"710 535 OFFCURVE",
"639 615 OFFCURVE",
"639 752 CURVE SMOOTH",
"639 905 OFFCURVE",
"704 993 OFFCURVE",
"833 1018 CURVE",
"846 866 OFFCURVE",
"852 705 OFFCURVE",
"852 535 CURVE",
"823 535 LINE SMOOTH"
);
}
);
width = 1118;
}
);
note = uni1973;
unicode = 1973;
},
{
glyphname = uni1974;
lastChange = "2016-11-10 17:38:31 +0000";
layers = (
{
layerId = "B764C7F0-85F8-4672-8E50-094117B7ADAE";
paths = (
{
closed = 1;
nodes = (
"686 -20 OFFCURVE",
"848 50 OFFCURVE",
"981 166 CURVE",
"945 235 LINE",
"836 156 OFFCURVE",
"705 110 OFFCURVE",
"593 110 CURVE SMOOTH",
"402 110 OFFCURVE",
"266 290 OFFCURVE",
"266 551 CURVE SMOOTH",
"266 842 OFFCURVE",
"365 988 OFFCURVE",
"562 988 CURVE SMOOTH",
"675 988 OFFCURVE",
"747 947 OFFCURVE",
"796 851 CURVE",
"944 914 LINE",
"880 1043 OFFCURVE",
"769 1118 OFFCURVE",
"578 1118 CURVE SMOOTH",
"490 1118 OFFCURVE",
"409 1093 OFFCURVE",
"336 1042 CURVE SMOOTH",
"188 941 OFFCURVE",
"90 744 OFFCURVE",
"90 551 CURVE SMOOTH",
"90 186 OFFCURVE",
"259 -20 OFFCURVE",
"550 -20 CURVE SMOOTH"
);
}
);
width = 1071;
}
);
note = uni1974;
unicode = 1974;
},
{
glyphname = uni3001;
lastChange = "2016-11-10 17:38:31 +0000";
layers = (
{
layerId = "B764C7F0-85F8-4672-8E50-094117B7ADAE";
paths = (
{
closed = 1;
nodes = (
"514 -100 OFFCURVE",
"548 -70 OFFCURVE",
"548 -11 CURVE SMOOTH",
"548 34 OFFCURVE",
"528 86 OFFCURVE",
"489 145 CURVE SMOOTH",
"410 263 OFFCURVE",
"272 374 OFFCURVE",
"167 406 CURVE",
"120 351 LINE",
"252 266 OFFCURVE",
"321 156 OFFCURVE",
"350 5 CURVE SMOOTH",
"365 -71 OFFCURVE",
"388 -100 OFFCURVE",
"445 -100 CURVE SMOOTH"
);
}
);
width = 850;
}
);
note = uni3001;
unicode = 3001;
},
{
glyphname = uni3002;
lastChange = "2016-11-10 17:38:31 +0000";
layers = (
{
layerId = "B764C7F0-85F8-4672-8E50-094117B7ADAE";
paths = (
{
closed = 1;
nodes = (
"424 -30 OFFCURVE",
"506 48 OFFCURVE",
"506 157 CURVE SMOOTH",
"506 264 OFFCURVE",
"422 344 OFFCURVE",
"313 344 CURVE SMOOTH",
"202 344 OFFCURVE",
"120 260 OFFCURVE",
"120 157 CURVE SMOOTH",
"120 50 OFFCURVE",
"202 -30 OFFCURVE",
"313 -30 CURVE SMOOTH"
);
},
{
closed = 1;
nodes = (
"250 50 OFFCURVE",
"206 100 OFFCURVE",
"206 157 CURVE SMOOTH",
"206 217 OFFCURVE",
"253 264 OFFCURVE",
"313 264 CURVE SMOOTH",
"370 264 OFFCURVE",
"420 221 OFFCURVE",
"420 157 CURVE SMOOTH",
"420 96 OFFCURVE",
"374 50 OFFCURVE",
"313 50 CURVE SMOOTH"
);
}
);
width = 850;
}
);
note = uni3002;
unicode = 3002;
},
{
glyphname = uni3008;
lastChange = "2016-11-10 17:38:31 +0000";
layers = (
{
layerId = "B764C7F0-85F8-4672-8E50-094117B7ADAE";
paths = (
{
closed = 1;
nodes = (
"680 21 LINE",
"219 770 LINE",
"680 1520 LINE",
"586 1557 LINE",
"100 770 LINE",
"586 -15 LINE"
);
}
);
width = 780;
}
);
note = uni3008;
unicode = 3008;
},
{
glyphname = uni3009;
lastChange = "2016-11-10 17:37:33 +0000";
layers = (
{
layerId = "B764C7F0-85F8-4672-8E50-094117B7ADAE";
paths = (
{
closed = 1;
nodes = (
"680 770 LINE",
"194 1557 LINE",
"100 1520 LINE",
"561 770 LINE",
"100 21 LINE",
"194 -15 LINE"
);
}
);
width = 780;
}
);
note = uni3009;
unicode = 3009;
},
{
glyphname = uni300A;
lastChange = "2016-11-10 17:38:31 +0000";
layers = (
{
layerId = "B764C7F0-85F8-4672-8E50-094117B7ADAE";
paths = (
{
closed = 1;
nodes = (
"1080 21 LINE",
"619 770 LINE",
"1080 1520 LINE",
"986 1557 LINE",
"500 770 LINE",
"986 -15 LINE"
);
},
{
closed = 1;
nodes = (
"680 21 LINE",
"219 770 LINE",
"680 1520 LINE",
"586 1557 LINE",
"100 770 LINE",
"586 -15 LINE"
);
}
);
width = 1180;
}
);
note = uni300A;
unicode = 300A;
},
{
glyphname = uni300B;
lastChange = "2016-11-10 17:38:31 +0000";
layers = (
{
layerId = "B764C7F0-85F8-4672-8E50-094117B7ADAE";
paths = (
{
closed = 1;
nodes = (
"1080 772 LINE",
"594 1557 LINE",
"500 1521 LINE",
"961 772 LINE",
"500 22 LINE",
"594 -15 LINE"
);
},
{
closed = 1;
nodes = (
"680 772 LINE",
"194 1557 LINE",
"100 1521 LINE",
"561 772 LINE",
"100 22 LINE",
"194 -15 LINE"
);
}
);
width = 1180;
}
);
note = uni300B;
unicode = 300B;
},
{
glyphname = uni1040;
lastChange = "2016-11-10 17:38:31 +0000";
layers = (
{
layerId = "B764C7F0-85F8-4672-8E50-094117B7ADAE";
paths = (
{
closed = 1;
nodes = (
"725 -20 OFFCURVE",
"824 3 OFFCURVE",
"912 48 CURVE SMOOTH",
"1088 138 OFFCURVE",
"1200 339 OFFCURVE",
"1200 551 CURVE SMOOTH",
"1200 652 OFFCURVE",
"1179 746 OFFCURVE",
"1138 833 CURVE SMOOTH",
"1054 1005 OFFCURVE",
"890 1118 OFFCURVE",
"673 1118 CURVE SMOOTH",
"560 1118 OFFCURVE",
"459 1094 OFFCURVE",
"371 1046 CURVE SMOOTH",
"195 949 OFFCURVE",
"90 753 OFFCURVE",
"90 540 CURVE SMOOTH",
"90 434 OFFCURVE",
"112 339 OFFCURVE",
"155 254 CURVE SMOOTH",
"241 84 OFFCURVE",
"405 -20 OFFCURVE",
"616 -20 CURVE SMOOTH"
);
},
{
closed = 1;
nodes = (
"428 95 OFFCURVE",
"266 281 OFFCURVE",
"266 589 CURVE SMOOTH",
"266 832 OFFCURVE",
"402 1003 OFFCURVE",
"626 1003 CURVE SMOOTH",
"870 1003 OFFCURVE",
"1024 810 OFFCURVE",
"1024 507 CURVE SMOOTH",
"1024 434 OFFCURVE",
"1011 366 OFFCURVE",
"985 304 CURVE SMOOTH",
"932 179 OFFCURVE",
"823 95 OFFCURVE",
"667 95 CURVE SMOOTH"
);
}
);
width = 1290;
}
);
note = uni1040;
unicode = 1040;
},
{
glyphname = uni1041;
lastChange = "2016-11-10 17:38:31 +0000";
layers = (
{
layerId = "B764C7F0-85F8-4672-8E50-094117B7ADAE";
paths = (
{
closed = 1;
nodes = (
"648 -20 OFFCURVE",
"776 25 OFFCURVE",
"888 127 CURVE SMOOTH",
"1000 229 OFFCURVE",
"1064 388 OFFCURVE",
"1064 547 CURVE SMOOTH",
"1064 650 OFFCURVE",
"1043 745 OFFCURVE",
"1002 832 CURVE SMOOTH",
"918 1005 OFFCURVE",
"750 1118 OFFCURVE",
"518 1118 CURVE SMOOTH",
"367 1118 OFFCURVE",
"205 1037 OFFCURVE",
"108 938 CURVE",
"170 872 LINE",
"267 959 OFFCURVE",
"375 1003 OFFCURVE",
"494 1003 CURVE SMOOTH",
"735 1003 OFFCURVE",
"888 810 OFFCURVE",
"888 503 CURVE SMOOTH",
"888 430 OFFCURVE",
"875 363 OFFCURVE",
"850 302 CURVE SMOOTH",
"799 179 OFFCURVE",
"694 95 OFFCURVE",
"537 95 CURVE SMOOTH",
"413 95 OFFCURVE",
"286 162 OFFCURVE",
"209 309 CURVE",
"78 219 LINE",
"153 83 OFFCURVE",
"332 -20 OFFCURVE",
"485 -20 CURVE SMOOTH"
);
}
);
width = 1154;
}
);
note = uni1041;
unicode = 1041;
},
{
glyphname = uni1042;
lastChange = "2016-11-10 17:38:31 +0000";
layers = (
{
layerId = "B764C7F0-85F8-4672-8E50-094117B7ADAE";
paths = (
{
closed = 1;
nodes = (
"911 -600 OFFCURVE",
"1126 -340 OFFCURVE",
"1126 127 CURVE SMOOTH",
"1126 478 OFFCURVE",
"1120 869 OFFCURVE",
"1105 1118 CURVE",
"929 1098 LINE",
"943 910 OFFCURVE",
"950 579 OFFCURVE",
"950 104 CURVE SMOOTH",
"950 -299 OFFCURVE",
"830 -485 OFFCURVE",
"557 -485 CURVE SMOOTH",
"490 -485 OFFCURVE",
"430 -468 OFFCURVE",
"376 -435 CURVE SMOOTH",
"268 -369 OFFCURVE",
"198 -269 OFFCURVE",
"169 -181 CURVE",
"8 -251 LINE",
"117 -459 OFFCURVE",
"317 -600 OFFCURVE",
"526 -600 CURVE SMOOTH"
);
}
);
width = 1226;
}
);
note = uni1042;
unicode = 1042;
},
{
glyphname = uni1043;
lastChange = "2016-11-10 17:38:31 +0000";
layers = (
{
layerId = "B764C7F0-85F8-4672-8E50-094117B7ADAE";
paths = (
{
closed = 1;
nodes = (
"837 -507 LINE",
"425 -15 LINE",
"447 -18 OFFCURVE",
"467 -20 OFFCURVE",
"485 -20 CURVE SMOOTH",
"648 -20 OFFCURVE",
"776 25 OFFCURVE",
"888 127 CURVE SMOOTH",
"1000 229 OFFCURVE",
"1064 388 OFFCURVE",
"1064 547 CURVE SMOOTH",
"1064 650 OFFCURVE",
"1043 745 OFFCURVE",
"1002 832 CURVE SMOOTH",
"918 1005 OFFCURVE",
"750 1118 OFFCURVE",
"518 1118 CURVE SMOOTH",
"367 1118 OFFCURVE",
"205 1037 OFFCURVE",
"108 938 CURVE",
"170 872 LINE",
"267 959 OFFCURVE",
"375 1003 OFFCURVE",
"494 1003 CURVE SMOOTH",
"735 1003 OFFCURVE",
"888 810 OFFCURVE",
"888 503 CURVE SMOOTH",
"888 430 OFFCURVE",
"875 363 OFFCURVE",
"850 302 CURVE SMOOTH",
"799 179 OFFCURVE",
"694 95 OFFCURVE",
"537 95 CURVE SMOOTH",
"413 95 OFFCURVE",
"286 162 OFFCURVE",
"209 309 CURVE",
"78 219 LINE",
"686 -596 LINE"
);
}
);
width = 1154;
}
);
note = uni1043;
unicode = 1043;
},
{
glyphname = uni1044;
lastChange = "2016-11-10 17:38:31 +0000";
layers = (
{
layerId = "B764C7F0-85F8-4672-8E50-094117B7ADAE";
paths = (
{
closed = 1;
nodes = (
"1076 219 LINE",
"1000 263 LINE",
"897 151 OFFCURVE",
"788 95 OFFCURVE",
"673 95 CURVE SMOOTH",
"600 95 OFFCURVE",
"533 115 OFFCURVE",
"471 154 CURVE SMOOTH",
"347 233 OFFCURVE",
"266 387 OFFCURVE",
"266 587 CURVE SMOOTH",
"266 664 OFFCURVE",
"279 733 OFFCURVE",
"306 796 CURVE SMOOTH",
"358 921 OFFCURVE",
"467 1003 OFFCURVE",
"627 1003 CURVE SMOOTH",
"750 1003 OFFCURVE",
"871 939 OFFCURVE",
"948 799 CURVE",
"1079 889 LINE",
"986 1028 OFFCURVE",
"829 1118 OFFCURVE",
"669 1118 CURVE SMOOTH",
"496 1118 OFFCURVE",
"360 1065 OFFCURVE",
"255 960 CURVE SMOOTH",
"150 855 OFFCURVE",
"90 703 OFFCURVE",
"90 544 CURVE SMOOTH",
"90 437 OFFCURVE",
"114 340 OFFCURVE",
"163 255 CURVE SMOOTH",
"259 83 OFFCURVE",
"437 -20 OFFCURVE",
"646 -20 CURVE SMOOTH",
"673 -20 OFFCURVE",
"701 -17 OFFCURVE",
"731 -12 CURVE",
"316 -507 LINE",
"467 -596 LINE"
);
}
);
width = 1154;
}
);
note = uni1044;
unicode = 1044;
},
{
glyphname = uni1045;
lastChange = "2016-11-10 17:38:31 +0000";
layers = (
{
layerId = "B764C7F0-85F8-4672-8E50-094117B7ADAE";
paths = (
{
closed = 1;
nodes = (
"950 -600 OFFCURVE",
"1156 -355 OFFCURVE",
"1156 112 CURVE",
"1154 534 LINE SMOOTH",
"1153 659 OFFCURVE",
"1129 766 OFFCURVE",
"1082 856 CURVE SMOOTH",
"986 1036 OFFCURVE",
"826 1118 OFFCURVE",
"622 1118 CURVE SMOOTH",
"522 1118 OFFCURVE",
"429 1096 OFFCURVE",
"344 1052 CURVE SMOOTH",
"172 964 OFFCURVE",
"61 794 OFFCURVE",
"61 578 CURVE SMOOTH",
"61 381 OFFCURVE",
"197 246 OFFCURVE",
"374 246 CURVE SMOOTH",
"547 246 OFFCURVE",
"681 372 OFFCURVE",
"681 539 CURVE SMOOTH",
"681 696 OFFCURVE",
"554 817 OFFCURVE",
"401 817 CURVE SMOOTH",
"350 817 OFFCURVE",
"279 791 OFFCURVE",
"239 752 CURVE",
"268 887 OFFCURVE",
"410 1003 OFFCURVE",
"570 1003 CURVE SMOOTH",
"827 1003 OFFCURVE",
"980 816 OFFCURVE",
"980 536 CURVE SMOOTH",
"980 104 LINE SMOOTH",
"980 -41 OFFCURVE",
"965 -156 OFFCURVE",
"934 -243 CURVE SMOOTH",
"872 -416 OFFCURVE",
"756 -485 OFFCURVE",
"587 -485 CURVE SMOOTH",
"406 -485 OFFCURVE",
"266 -366 OFFCURVE",
"199 -181 CURVE",
"38 -251 LINE",
"146 -456 OFFCURVE",
"330 -600 OFFCURVE",
"563 -600 CURVE SMOOTH"
);
},
{
closed = 1;
nodes = (
"289 355 OFFCURVE",
"209 443 OFFCURVE",
"209 542 CURVE SMOOTH",
"209 641 OFFCURVE",
"269 708 OFFCURVE",
"353 708 CURVE SMOOTH",
"466 708 OFFCURVE",
"541 617 OFFCURVE",
"541 520 CURVE SMOOTH",
"541 428 OFFCURVE",
"490 355 OFFCURVE",
"389 355 CURVE SMOOTH"
);
}
);
width = 1256;
}
);
note = uni1045;
unicode = 1045;
},
{
glyphname = uni1046;
lastChange = "2016-11-10 17:37:33 +0000";
layers = (
{
layerId = "B764C7F0-85F8-4672-8E50-094117B7ADAE";
paths = (
{
closed = 1;
nodes = (
"822 -20 OFFCURVE",
"935 1 OFFCURVE",
"1024 42 CURVE SMOOTH",
"1202 125 OFFCURVE",
"1282 273 OFFCURVE",
"1282 458 CURVE SMOOTH",
"1282 504 OFFCURVE",
"1273 548 OFFCURVE",
"1254 590 CURVE SMOOTH",
"1216 673 OFFCURVE",
"1153 715 OFFCURVE",
"1065 715 CURVE SMOOTH",
"1010 715 OFFCURVE",
"954 708 OFFCURVE",
"898 693 CURVE SMOOTH",
"841 678 OFFCURVE",
"789 670 OFFCURVE",
"742 670 CURVE SMOOTH",
"661 670 OFFCURVE",
"607 732 OFFCURVE",
"607 828 CURVE SMOOTH",
"607 927 OFFCURVE",
"665 1005 OFFCURVE",
"782 1005 CURVE SMOOTH",
"854 1005 OFFCURVE",
"961 993 OFFCURVE",
"1025 977 CURVE",
"1049 1071 LINE",
"950 1104 OFFCURVE",
"854 1120 OFFCURVE",
"761 1120 CURVE SMOOTH",
"695 1120 OFFCURVE",
"638 1105 OFFCURVE",
"589 1076 CURVE SMOOTH",
"492 1017 OFFCURVE",
"440 919 OFFCURVE",
"440 826 CURVE SMOOTH",
"440 657 OFFCURVE",
"540 555 OFFCURVE",
"719 555 CURVE SMOOTH",
"769 555 OFFCURVE",
"822 562 OFFCURVE",
"879 575 CURVE SMOOTH",
"935 588 OFFCURVE",
"980 595 OFFCURVE",
"1015 595 CURVE SMOOTH",
"1066 595 OFFCURVE",
"1106 542 OFFCURVE",
"1106 454 CURVE SMOOTH",
"1106 230 OFFCURVE",
"985 95 OFFCURVE",
"728 95 CURVE SMOOTH",
"631 95 OFFCURVE",
"548 116 OFFCURVE",
"480 159 CURVE SMOOTH",
"344 243 OFFCURVE",
"276 397 OFFCURVE",
"276 586 CURVE SMOOTH",
"276 1124 LINE SMOOTH",
"276 1509 OFFCURVE",
"410 1730 OFFCURVE",
"697 1730 CURVE SMOOTH",
"892 1730 OFFCURVE",
"1027 1689 OFFCURVE",
"1160 1580 CURVE",
"1244 1663 LINE",
"1071 1806 OFFCURVE",
"926 1860 OFFCURVE",
"697 1860 CURVE SMOOTH",
"556 1860 OFFCURVE",
"441 1824 OFFCURVE",
"351 1752 CURVE SMOOTH",
"170 1607 OFFCURVE",
"100 1360 OFFCURVE",
"100 1103 CURVE SMOOTH",
"100 578 LINE SMOOTH",
"100 461 OFFCURVE",
"123 356 OFFCURVE",
"170 263 CURVE SMOOTH",
"263 76 OFFCURVE",
"447 -20 OFFCURVE",
"686 -20 CURVE SMOOTH"
);
}
);
width = 1372;
}
);
note = uni1046;
unicode = 1046;
},
{
glyphname = uni1047;
lastChange = "2016-11-10 17:38:31 +0000";
layers = (
{
layerId = "B764C7F0-85F8-4672-8E50-094117B7ADAE";
paths = (
{
closed = 1;
nodes = (
"851 -600 OFFCURVE",
"960 -538 OFFCURVE",
"1036 -450 CURVE",
"979 -379 LINE",
"914 -447 OFFCURVE",
"814 -485 OFFCURVE",
"743 -485 CURVE SMOOTH",
"655 -485 OFFCURVE",
"596 -441 OFFCURVE",
"596 -345 CURVE SMOOTH",
"596 -249 OFFCURVE",
"656 -163 OFFCURVE",
"821 -15 CURVE SMOOTH",
"903 58 OFFCURVE",
"972 124 OFFCURVE",
"1027 183 CURVE SMOOTH",
"1137 299 OFFCURVE",
"1198 424 OFFCURVE",
"1198 597 CURVE SMOOTH",
"1198 705 OFFCURVE",
"1176 799 OFFCURVE",
"1132 878 CURVE SMOOTH",
"1043 1036 OFFCURVE",
"868 1118 OFFCURVE",
"667 1118 CURVE SMOOTH",
"546 1118 OFFCURVE",
"442 1092 OFFCURVE",
"355 1040 CURVE SMOOTH",
"180 936 OFFCURVE",
"90 755 OFFCURVE",
"90 556 CURVE SMOOTH",
"90 349 OFFCURVE",
"222 167 OFFCURVE",
"409 90 CURVE",
"466 178 LINE",
"347 245 OFFCURVE",
"266 377 OFFCURVE",
"266 580 CURVE SMOOTH",
"266 836 OFFCURVE",
"399 1003 OFFCURVE",
"628 1003 CURVE SMOOTH",
"864 1003 OFFCURVE",
"1022 842 OFFCURVE",
"1022 615 CURVE SMOOTH",
"1022 440 OFFCURVE",
"942 298 OFFCURVE",
"722 102 CURVE SMOOTH",
"501 -95 OFFCURVE",
"420 -194 OFFCURVE",
"420 -333 CURVE SMOOTH",
"420 -492 OFFCURVE",
"535 -600 OFFCURVE",
"720 -600 CURVE SMOOTH"
);
}
);
width = 1288;
}
);
note = uni1047;
unicode = 1047;
},
{
glyphname = uni1048;
lastChange = "2016-11-10 17:38:31 +0000";
layers = (
{
layerId = "B764C7F0-85F8-4672-8E50-094117B7ADAE";
paths = (
{
closed = 1;
nodes = (
"597 108 OFFCURVE",
"708 309 OFFCURVE",
"708 506 CURVE SMOOTH",
"708 657 OFFCURVE",
"616 854 OFFCURVE",
"491 970 CURVE",
"540 992 OFFCURVE",
"594 1003 OFFCURVE",
"652 1003 CURVE SMOOTH",
"735 1003 OFFCURVE",
"809 983 OFFCURVE",
"875 942 CURVE SMOOTH",
"1006 861 OFFCURVE",
"1084 708 OFFCURVE",
"1084 517 CURVE SMOOTH",
"1084 325 OFFCURVE",
"983 146 OFFCURVE",
"839 69 CURVE",
"889 -20 LINE",
"1105 85 OFFCURVE",
"1260 319 OFFCURVE",
"1260 551 CURVE SMOOTH",
"1260 700 OFFCURVE",
"1198 851 OFFCURVE",
"1090 958 CURVE SMOOTH",
"982 1065 OFFCURVE",
"846 1118 OFFCURVE",
"679 1118 CURVE SMOOTH",
"558 1118 OFFCURVE",
"453 1090 OFFCURVE",
"364 1034 CURVE SMOOTH",
"185 922 OFFCURVE",
"90 732 OFFCURVE",
"90 540 CURVE SMOOTH",
"90 303 OFFCURVE",
"233 52 OFFCURVE",
"440 -20 CURVE"
);
},
{
closed = 1;
nodes = (
"338 191 OFFCURVE",
"266 368 OFFCURVE",
"266 579 CURVE SMOOTH",
"266 708 OFFCURVE",
"311 825 OFFCURVE",
"392 904 CURVE",
"481 804 OFFCURVE",
"532 673 OFFCURVE",
"532 477 CURVE SMOOTH",
"532 345 OFFCURVE",
"498 220 OFFCURVE",
"433 128 CURVE"
);
}
);
width = 1350;
}
);
note = uni1048;
unicode = 1048;
},
{
glyphname = uni1049;
lastChange = "2016-11-10 17:38:31 +0000";
layers = (
{
layerId = "B764C7F0-85F8-4672-8E50-094117B7ADAE";
paths = (
{
closed = 1;
nodes = (
"926 -600 OFFCURVE",
"1071 -546 OFFCURVE",
"1244 -403 CURVE",
"1160 -320 LINE",
"1027 -429 OFFCURVE",
"892 -470 OFFCURVE",
"697 -470 CURVE SMOOTH",
"416 -470 OFFCURVE",
"276 -281 OFFCURVE",
"276 96 CURVE SMOOTH",
"276 512 LINE SMOOTH",
"276 607 OFFCURVE",
"293 691 OFFCURVE",
"327 765 CURVE SMOOTH",
"395 913 OFFCURVE",
"533 1003 OFFCURVE",
"728 1003 CURVE SMOOTH",
"985 1003 OFFCURVE",
"1106 869 OFFCURVE",
"1106 646 CURVE SMOOTH",
"1106 558 OFFCURVE",
"1066 505 OFFCURVE",
"1015 505 CURVE SMOOTH",
"982 505 OFFCURVE",
"938 512 OFFCURVE",
"881 525 CURVE SMOOTH",
"824 538 OFFCURVE",
"771 545 OFFCURVE",
"722 545 CURVE SMOOTH",
"547 545 OFFCURVE",
"440 432 OFFCURVE",
"440 259 CURVE SMOOTH",
"440 107 OFFCURVE",
"569 -20 OFFCURVE",
"761 -20 CURVE SMOOTH",
"854 -20 OFFCURVE",
"950 -4 OFFCURVE",
"1049 29 CURVE",
"1025 123 LINE",
"961 107 OFFCURVE",
"855 95 OFFCURVE",
"782 95 CURVE SMOOTH",
"663 95 OFFCURVE",
"607 161 OFFCURVE",
"607 257 CURVE SMOOTH",
"607 357 OFFCURVE",
"665 430 OFFCURVE",
"745 430 CURVE SMOOTH",
"792 430 OFFCURVE",
"843 423 OFFCURVE",
"899 408 CURVE SMOOTH",
"954 393 OFFCURVE",
"1010 385 OFFCURVE",
"1065 385 CURVE SMOOTH",
"1109 385 OFFCURVE",
"1147 396 OFFCURVE",
"1178 417 CURVE SMOOTH",
"1241 459 OFFCURVE",
"1282 550 OFFCURVE",
"1282 642 CURVE SMOOTH",
"1282 735 OFFCURVE",
"1261 817 OFFCURVE",
"1220 888 CURVE SMOOTH",
"1136 1031 OFFCURVE",
"959 1118 OFFCURVE",
"686 1118 CURVE SMOOTH",
"501 1118 OFFCURVE",
"361 1064 OFFCURVE",
"258 960 CURVE SMOOTH",
"155 856 OFFCURVE",
"100 700 OFFCURVE",
"100 520 CURVE SMOOTH",
"100 117 LINE SMOOTH",
"100 4 OFFCURVE",
"117 -107 OFFCURVE",
"150 -214 CURVE SMOOTH",
"215 -430 OFFCURVE",
"390 -600 OFFCURVE",
"697 -600 CURVE SMOOTH"
);
}
);
width = 1372;
}
);
note = uni1049;
unicode = 1049;
},
{
glyphname = uni0300;
lastChange = "2016-11-10 17:38:31 +0000";
layers = (
{
layerId = "B764C7F0-85F8-4672-8E50-094117B7ADAE";
paths = (
{
closed = 1;
nodes = (
"-535 1241 LINE",
"-535 1266 LINE",
"-598 1338 OFFCURVE",
"-689 1481 OFFCURVE",
"-732 1569 CURVE",
"-947 1569 LINE",
"-947 1548 LINE",
"-898 1473 OFFCURVE",
"-756 1321 OFFCURVE",
"-656 1241 CURVE"
);
}
);
width = 0;
}
);
note = uni0300;
unicode = 0300;
},
{
glyphname = uni0301;
lastChange = "2016-11-10 17:37:33 +0000";
layers = (
{
layerId = "B764C7F0-85F8-4672-8E50-094117B7ADAE";
paths = (
{
closed = 1;
nodes = (
"-642 1241 LINE",
"-558 1306 OFFCURVE",
"-408 1463 OFFCURVE",
"-349 1548 CURVE",
"-349 1569 LINE",
"-566 1569 LINE",
"-619 1465 OFFCURVE",
"-710 1330 OFFCURVE",
"-761 1266 CURVE",
"-761 1241 LINE"
);
}
);
width = 0;
}
);
note = uni0301;
unicode = 0301;
},
{
glyphname = uni0307;
lastChange = "2016-11-10 17:38:31 +0000";
layers = (
{
layerId = "B764C7F0-85F8-4672-8E50-094117B7ADAE";
paths = (
{
closed = 1;
nodes = (
"-592 1280 OFFCURVE",
"-543 1316 OFFCURVE",
"-543 1395 CURVE SMOOTH",
"-543 1475 OFFCURVE",
"-592 1509 OFFCURVE",
"-648 1509 CURVE SMOOTH",
"-708 1509 OFFCURVE",
"-754 1475 OFFCURVE",
"-754 1395 CURVE SMOOTH",
"-754 1316 OFFCURVE",
"-708 1280 OFFCURVE",
"-648 1280 CURVE SMOOTH"
);
}
);
width = 0;
}
);
note = uni0307;
unicode = 0307;
},
{
glyphname = uni0308;
lastChange = "2016-11-10 17:38:31 +0000";
layers = (
{
layerId = "B764C7F0-85F8-4672-8E50-094117B7ADAE";
paths = (
{
closed = 1;
nodes = (
"-788 1292 OFFCURVE",
"-743 1324 OFFCURVE",
"-743 1395 CURVE SMOOTH",
"-743 1466 OFFCURVE",
"-788 1495 OFFCURVE",
"-840 1495 CURVE SMOOTH",
"-893 1495 OFFCURVE",
"-936 1466 OFFCURVE",
"-936 1395 CURVE SMOOTH",
"-936 1324 OFFCURVE",
"-893 1292 OFFCURVE",
"-840 1292 CURVE SMOOTH"
);
},
{
closed = 1;
nodes = (
"-405 1292 OFFCURVE",
"-360 1324 OFFCURVE",
"-360 1395 CURVE SMOOTH",
"-360 1466 OFFCURVE",
"-405 1495 OFFCURVE",
"-457 1495 CURVE SMOOTH",
"-508 1495 OFFCURVE",
"-551 1466 OFFCURVE",
"-551 1395 CURVE SMOOTH",
"-551 1324 OFFCURVE",
"-508 1292 OFFCURVE",
"-457 1292 CURVE SMOOTH"
);
}
);
width = 0;
}
);
note = uni0308;
unicode = 0308;
},
{
glyphname = uni030C;
lastChange = "2016-11-10 17:38:31 +0000";
layers = (
{
layerId = "B764C7F0-85F8-4672-8E50-094117B7ADAE";
paths = (
{
closed = 1;
nodes = (
"-558 1241 LINE",
"-524 1305 OFFCURVE",
"-439 1405 OFFCURVE",
"-302 1542 CURVE",
"-302 1569 LINE",
"-429 1569 LINE",
"-494 1527 OFFCURVE",
"-568 1464 OFFCURVE",
"-652 1380 CURVE",
"-722 1457 OFFCURVE",
"-795 1520 OFFCURVE",
"-871 1569 CURVE",
"-994 1569 LINE",
"-994 1542 LINE",
"-866 1409 OFFCURVE",
"-782 1309 OFFCURVE",
"-742 1241 CURVE"
);
}
);
width = 0;
}
);
note = uni030C;
unicode = 030C;
},
{
glyphname = uni300.space;
lastChange = "2016-11-10 17:38:31 +0000";
layers = (
{
layerId = "B764C7F0-85F8-4672-8E50-094117B7ADAE";
paths = (
{
closed = 1;
nodes = (
"565 1241 LINE",
"565 1266 LINE",
"502 1338 OFFCURVE",
"411 1481 OFFCURVE",
"368 1569 CURVE",
"153 1569 LINE",
"153 1548 LINE",
"202 1473 OFFCURVE",
"344 1321 OFFCURVE",
"444 1241 CURVE"
);
}
);
width = 904;
}
);
note = uni300.space;
},
{
glyphname = uni0301.space;
lastChange = "2016-11-10 17:37:33 +0000";
layers = (
{
layerId = "B764C7F0-85F8-4672-8E50-094117B7ADAE";
paths = (
{
closed = 1;
nodes = (
"458 1241 LINE",
"542 1306 OFFCURVE",
"692 1463 OFFCURVE",
"751 1548 CURVE",
"751 1569 LINE",
"534 1569 LINE",
"481 1465 OFFCURVE",
"390 1330 OFFCURVE",
"339 1266 CURVE",
"339 1241 LINE"
);
}
);
width = 904;
}
);
note = uni0301.space;
},
{
glyphname = uni0307.space;
lastChange = "2016-11-10 17:38:31 +0000";
layers = (
{
layerId = "B764C7F0-85F8-4672-8E50-094117B7ADAE";
paths = (
{
closed = 1;
nodes = (
"508 1280 OFFCURVE",
"557 1316 OFFCURVE",
"557 1395 CURVE SMOOTH",
"557 1475 OFFCURVE",
"508 1509 OFFCURVE",
"452 1509 CURVE SMOOTH",
"392 1509 OFFCURVE",
"346 1475 OFFCURVE",
"346 1395 CURVE SMOOTH",
"346 1316 OFFCURVE",
"392 1280 OFFCURVE",
"452 1280 CURVE SMOOTH"
);
}
);
width = 904;
}
);
note = uni0307.space;
},
{
glyphname = uni0308.space;
lastChange = "2016-11-10 17:38:31 +0000";
layers = (
{
layerId = "B764C7F0-85F8-4672-8E50-094117B7ADAE";
paths = (
{
closed = 1;
nodes = (
"312 1292 OFFCURVE",
"357 1324 OFFCURVE",
"357 1395 CURVE SMOOTH",
"357 1466 OFFCURVE",
"312 1495 OFFCURVE",
"260 1495 CURVE SMOOTH",
"207 1495 OFFCURVE",
"164 1466 OFFCURVE",
"164 1395 CURVE SMOOTH",
"164 1324 OFFCURVE",
"207 1292 OFFCURVE",
"260 1292 CURVE SMOOTH"
);
},
{
closed = 1;
nodes = (
"695 1292 OFFCURVE",
"740 1324 OFFCURVE",
"740 1395 CURVE SMOOTH",
"740 1466 OFFCURVE",
"695 1495 OFFCURVE",
"643 1495 CURVE SMOOTH",
"592 1495 OFFCURVE",
"549 1466 OFFCURVE",
"549 1395 CURVE SMOOTH",
"549 1324 OFFCURVE",
"592 1292 OFFCURVE",
"643 1292 CURVE SMOOTH"
);
}
);
width = 904;
}
);
note = uni0308.space;
},
{
glyphname = uni030C.space;
lastChange = "2016-11-10 17:38:31 +0000";
layers = (
{
layerId = "B764C7F0-85F8-4672-8E50-094117B7ADAE";
paths = (
{
closed = 1;
nodes = (
"542 1241 LINE",
"576 1305 OFFCURVE",
"661 1405 OFFCURVE",
"798 1542 CURVE",
"798 1569 LINE",
"671 1569 LINE",
"606 1527 OFFCURVE",
"532 1464 OFFCURVE",
"448 1380 CURVE",
"378 1457 OFFCURVE",
"305 1520 OFFCURVE",
"229 1569 CURVE",
"106 1569 LINE",
"106 1542 LINE",
"234 1409 OFFCURVE",
"318 1309 OFFCURVE",
"358 1241 CURVE"
);
}
);
width = 904;
}
);
note = uni030C.space;
},
{
glyphname = uni196C.wide;
lastChange = "2016-11-10 17:38:31 +0000";
layers = (
{
layerId = "B764C7F0-85F8-4672-8E50-094117B7ADAE";
paths = (
{
closed = 1;
nodes = (
"276 0 LINE",
"276 1134 LINE SMOOTH",
"276 1542 OFFCURVE",
"420 1730 OFFCURVE",
"695 1730 CURVE SMOOTH",
"876 1730 OFFCURVE",
"993 1696 OFFCURVE",
"1154 1580 CURVE",
"1229 1673 LINE",
"1144 1728 OFFCURVE",
"1076 1768 OFFCURVE",
"1025 1791 CURVE SMOOTH",
"921 1837 OFFCURVE",
"815 1860 OFFCURVE",
"687 1860 CURVE SMOOTH",
"566 1860 OFFCURVE",
"461 1832 OFFCURVE",
"374 1775 CURVE SMOOTH",
"199 1661 OFFCURVE",
"100 1418 OFFCURVE",
"100 1098 CURVE SMOOTH",
"100 0 LINE"
);
}
);
width = 1400;
}
);
note = uni196C.wide;
},
